# Blender 4.1.1
# www.blender.org
mtllib night.mtl
o 球
v 0.000000 490.392639 97.545120
v 0.000000 461.939758 191.341690
v 0.000000 415.734833 277.785095
v 0.000000 353.553406 353.553345
v 0.000000 277.785126 415.734802
v 0.000000 191.341751 461.939758
v 0.000000 97.545212 490.392639
v 0.000000 0.000076 500.000000
v 0.000000 -97.545067 490.392670
v 0.000000 -415.734802 277.785126
v -19.030148 490.392639 95.670822
v -37.328957 461.939758 187.665115
v -54.193226 415.734833 272.447540
v -68.974876 353.553406 346.759918
v -81.105873 277.785126 407.746552
v -90.120003 191.341751 453.063690
v -95.670883 97.545212 480.969849
v -97.545189 0.000075 490.392639
v -95.670891 -97.545067 480.969879
v -90.120010 -191.341614 453.063721
v -81.105873 -277.785065 407.746613
v -68.974876 -353.553345 346.759979
v -54.193218 -415.734802 272.447571
v -37.328938 -461.939819 187.665085
v -19.030127 -490.392670 95.670776
v -37.328979 490.392639 90.119934
v -73.223366 461.939758 176.776672
v -106.303825 415.734833 256.639923
v -135.299088 353.553406 326.640656
v -159.094879 277.785126 384.088806
v -176.776733 191.341751 426.776642
v -187.665192 97.545204 453.063660
v -191.341766 0.000073 461.939728
v -187.665192 -97.545074 453.063660
v -176.776749 -191.341614 426.776672
v -159.094879 -277.785065 384.088867
v -135.299088 -353.553345 326.640717
v -106.303810 -415.734802 256.639954
v -73.223335 -461.939819 176.776642
v -37.328934 -490.392670 90.119888
v -54.193283 490.392639 81.105774
v -106.303856 461.939758 159.094788
v -154.329224 415.734833 230.969818
v -196.423828 353.553406 293.968811
v -230.969971 277.785126 345.670776
v -256.640045 191.341751 384.088806
v -272.447601 97.545204 407.746490
v -277.785217 0.000069 415.734741
v -272.447601 -97.545074 407.746490
v -256.640045 -191.341614 384.088837
v -230.969971 -277.785065 345.670837
v -196.423828 -353.553345 293.968872
v -154.329208 -415.734802 230.969849
v -106.303810 -461.939819 159.094772
v -54.193211 -490.392670 81.105751
v -68.974968 490.392639 68.974762
v -135.299149 461.939758 135.298950
v -196.423843 415.734802 196.423645
v -250.000092 353.553406 249.999908
v -293.968994 277.785126 293.968811
v -326.640808 191.341751 326.640656
v -346.760040 97.545197 346.759857
v -353.553497 0.000065 353.553284
v -346.760040 -97.545082 346.759857
v -326.640808 -191.341614 326.640686
v -293.968994 -277.785065 293.968872
v -250.000092 -353.553345 249.999969
v -196.423828 -415.734833 196.423676
v -135.299088 -461.939819 135.298965
v -68.974869 -490.392670 68.974754
v -81.105972 490.392639 54.193077
v -159.094955 461.939758 106.303658
v -230.970001 415.734802 154.329025
v -293.968994 353.553375 196.423615
v -345.670959 277.785126 230.969772
v -384.088959 191.341736 256.639893
v -407.746643 97.545197 272.447418
v -415.734924 0.000059 277.785004
v -407.746643 -97.545082 272.447418
v -384.088959 -191.341629 256.639923
v -345.670959 -277.785065 230.969803
v -293.968994 -353.553375 196.423676
v -230.969971 -415.734833 154.329056
v -159.094894 -461.939819 106.303703
v -81.105865 -490.392670 54.193092
v -90.120125 490.392639 37.328773
v -176.776840 461.939758 73.223175
v -256.640106 415.734802 106.303635
v -326.640839 353.553375 135.298874
v -384.088989 277.785095 159.094681
v -426.776764 191.341736 176.776566
v -453.063751 97.545189 187.664963
v -461.939880 0.000052 191.341583
v -453.063751 -97.545090 187.664963
v -426.776764 -191.341629 176.776627
v -384.088989 -277.785095 159.094711
v -326.640839 -353.553375 135.298935
v -256.640076 -415.734833 106.303665
v -176.776764 -461.939819 73.223228
v -90.120003 -490.392670 37.328815
v -95.671005 490.392639 19.029945
v -187.665283 461.939758 37.328754
v -272.447662 415.734802 54.193027
v -346.760071 353.553375 68.974686
v -407.746674 277.785095 81.105667
v -453.063782 191.341721 90.119835
v -480.969910 97.545181 95.670662
v -490.392731 0.000045 97.544998
v -480.969910 -97.545097 95.670677
v -453.063782 -191.341644 90.119896
v -407.746674 -277.785095 81.105713
v -346.760071 -353.553375 68.974731
v -272.447632 -415.734833 54.193066
v -187.665207 -461.939819 37.328815
v -95.670876 -490.392670 19.030005
v -97.545303 490.392639 -0.000200
v -191.341843 461.939758 -0.000195
v -277.785248 415.734802 -0.000187
v -353.553467 353.553375 -0.000187
v -415.734894 277.785095 -0.000188
v -461.939850 191.341721 -0.000151
v -490.392639 97.545174 -0.000204
v -500.000122 0.000038 -0.000189
v -490.392639 -97.545105 -0.000190
v -461.939850 -191.341644 -0.000101
v -415.734894 -277.785095 -0.000146
v -353.553467 -353.553375 -0.000133
v -277.785187 -415.734833 -0.000140
v -191.341766 -461.939819 -0.000117
v -97.545181 -490.392670 -0.000117
v -95.670998 490.392639 -19.030344
v -187.665268 461.939758 -37.329140
v -272.447662 415.734802 -54.193401
v -346.760040 353.553375 -68.975037
v -407.746643 277.785095 -81.106041
v -453.063782 191.341721 -90.120148
v -480.969849 97.545166 -95.671059
v -490.392731 0.000031 -97.545372
v -480.969849 -97.545113 -95.671043
v -453.063782 -191.341644 -90.120094
v -407.746643 -277.785095 -81.105995
v -346.760040 -353.553375 -68.974991
v -272.447601 -415.734833 -54.193344
v -187.665192 -461.939819 -37.329048
v -95.670876 -490.392670 -19.030241
v -90.120102 490.392639 -37.329170
v -176.776810 461.939758 -73.223549
v -256.640076 415.734802 -106.303993
v -326.640808 353.553375 -135.299240
v -384.088898 277.785095 -159.095032
v -426.776764 191.341705 -176.776871
v -453.063660 97.545158 -187.665314
v -461.939850 0.000024 -191.341934
v -453.063660 -97.545120 -187.665314
v -426.776764 -191.341660 -176.776810
v -384.088898 -277.785095 -159.095001
v -326.640808 -353.553375 -135.299179
v -256.640015 -415.734833 -106.303932
v -176.776733 -461.939819 -73.223442
v -90.119995 -490.392670 -37.329044
v -81.105942 490.392639 -54.193462
v -159.094925 461.939758 -106.304016
v -230.969971 415.734802 -154.329376
v -293.968964 353.553375 -196.423950
v -345.670868 277.785065 -230.970093
v -384.088928 191.341705 -256.640137
v -407.746521 97.545151 -272.447693
v -415.734863 0.000017 -277.785339
v -407.746521 -97.545128 -272.447693
v -384.088928 -191.341660 -256.640137
v -345.670868 -277.785126 -230.970062
v -293.968964 -353.553375 -196.423889
v -230.969910 -415.734833 -154.329300
v -159.094849 -461.939819 -106.303909
v -81.105850 -490.392670 -54.193321
v -68.974930 490.392639 -68.975136
v -135.299118 461.939758 -135.299286
v -196.423798 415.734802 -196.423981
v -250.000031 353.553345 -250.000214
v -293.968872 277.785065 -293.969116
v -326.640808 191.341690 -326.640900
v -346.759918 97.545151 -346.760101
v -353.553406 0.000011 -353.553619
v -346.759918 -97.545128 -346.760101
v -326.640808 -191.341675 -326.640900
v -293.968872 -277.785126 -293.969055
v -250.000031 -353.553406 -250.000153
v -196.423752 -415.734833 -196.423889
v -135.299042 -461.939819 -135.299179
v -68.974854 -490.392670 -68.974976
v -54.193249 490.392639 -81.106133
v -106.303825 461.939758 -159.095078
v -154.329178 415.734772 -230.970108
v -196.423752 353.553345 -293.969116
v -230.969864 277.785065 -345.671051
v -256.640045 191.341690 -384.089050
v -272.447510 97.545143 -407.746704
v -277.785126 0.000007 -415.735046
v -272.447510 -97.545135 -407.746704
v -256.640045 -191.341675 -384.089050
v -230.969864 -277.785126 -345.670990
v -196.423752 -353.553406 -293.969055
v -154.329132 -415.734863 -230.970032
v -106.303772 -461.939819 -159.094955
v -54.193195 -490.392670 -81.105972
v 0.000000 -500.000000 -0.000125
v -37.328957 490.392639 -90.120277
v -73.223351 461.939758 -176.776947
v -106.303795 415.734772 -256.640228
v -135.299011 353.553345 -326.640930
v -159.094788 277.785065 -384.089050
v -176.776733 191.341690 -426.776855
v -187.665070 97.545143 -453.063812
v -191.341705 0.000003 -461.940002
v -187.665070 -97.545135 -453.063812
v -176.776733 -191.341675 -426.776855
v -159.094788 -277.785126 -384.088989
v -135.299011 -353.553406 -326.640869
v -106.303749 -415.734863 -256.640106
v -73.223305 -461.939819 -176.776825
v -37.328926 -490.392670 -90.120110
v -19.030134 490.392639 -95.671165
v -37.328953 461.939758 -187.665390
v -54.193214 415.734772 -272.447784
v -68.974831 353.553345 -346.760162
v -81.105782 277.785065 -407.746704
v -90.120010 191.341690 -453.063873
v -95.670807 97.545135 -480.969971
v -97.545128 0.000001 -490.392853
v -95.670807 -97.545143 -480.969971
v -90.120010 -191.341675 -453.063873
v -81.105782 -277.785126 -407.746643
v -68.974831 -353.553406 -346.760101
v -54.193180 -415.734863 -272.447662
v -37.328922 -461.939819 -187.665268
v -19.030121 -490.392670 -95.670982
v 0.000004 490.392639 -97.545464
v -0.000021 461.939758 -191.341949
v -0.000013 415.734772 -277.785370
v 0.000013 353.553345 -353.553558
v 0.000043 277.785065 -415.734894
v -0.000032 191.341690 -461.939941
v 0.000043 97.545135 -490.392700
v 0.000050 0.000000 -500.000183
v 0.000043 -97.545143 -490.392700
v -0.000032 -191.341675 -461.939941
v 0.000043 -277.785126 -415.734833
v 0.000013 -353.553406 -353.553497
v 0.000005 -415.734863 -277.785217
v -0.000002 -461.939819 -191.341827
v -0.000002 -490.392670 -97.545280
v 19.030140 490.392639 -95.671150
v 37.328907 461.939758 -187.665359
v 54.193184 415.734772 -272.447784
v 68.974861 353.553345 -346.760132
v 81.105865 277.785065 -407.746643
v 90.119949 191.341690 -453.063873
v 95.670876 97.545135 -480.969910
v 97.545219 0.000001 -490.392792
v 95.670876 -97.545143 -480.969910
v 90.119949 -191.341675 -453.063873
v 81.105865 -277.785126 -407.746582
v 68.974861 -353.553406 -346.760071
v 54.193184 -415.734863 -272.447632
v 37.328911 -461.939819 -187.665237
v 19.030115 -490.392670 -95.670975
v 37.328957 490.392639 -90.120255
v 73.223297 461.939758 -176.776901
v 106.303764 415.734772 -256.640228
v 135.299026 353.553345 -326.640900
v 159.094818 277.785065 -384.088898
v 176.776657 191.341690 -426.776855
v 187.665131 97.545143 -453.063721
v 191.341782 0.000003 -461.939911
v 187.665131 -97.545135 -453.063721
v 176.776657 -191.341675 -426.776855
v 159.094818 -277.785126 -384.088837
v 135.299026 -353.553406 -326.640839
v 106.303749 -415.734863 -256.640076
v 73.223289 -461.939819 -176.776779
v 37.328911 -490.392670 -90.120087
v 54.193237 490.392639 -81.106102
v 106.303757 461.939758 -159.095016
v 154.329147 415.734772 -230.970108
v 196.423737 353.553345 -293.969055
v 230.969849 277.785065 -345.670868
v 256.639954 191.341690 -384.089020
v 272.447540 97.545143 -407.746582
v 277.785187 0.000007 -415.734924
v 272.447540 -97.545135 -407.746582
v 256.639954 -191.341675 -384.089020
v 230.969849 -277.785126 -345.670807
v 196.423737 -353.553406 -293.968994
v 154.329117 -415.734863 -230.969971
v 106.303734 -461.939819 -159.094894
v 54.193172 -490.392670 -81.105942
v 0.000115 500.000000 -0.000316
v 68.974907 490.392639 -68.975098
v 135.299026 461.939758 -135.299210
v 196.423752 415.734802 -196.423965
v 250.000000 353.553345 -250.000153
v 293.968842 277.785065 -293.968903
v 326.640686 191.341690 -326.640869
v 346.759888 97.545151 -346.759949
v 353.553436 0.000011 -353.553467
v 346.759888 -97.545128 -346.759949
v 326.640686 -191.341675 -326.640869
v 293.968842 -277.785126 -293.968842
v 250.000000 -353.553406 -250.000092
v 196.423706 -415.734833 -196.423813
v 135.298996 -461.939819 -135.299103
v 68.974823 -490.392670 -68.974945
v 81.105904 490.392639 -54.193428
v 159.094818 461.939758 -106.303940
v 230.969894 415.734802 -154.329346
v 293.968872 353.553375 -196.423889
v 345.670746 277.785065 -230.969910
v 384.088837 191.341705 -256.640137
v 407.746460 97.545151 -272.447540
v 415.734833 0.000017 -277.785187
v 407.746460 -97.545128 -272.447540
v 384.088837 -191.341660 -256.640137
v 345.670746 -277.785126 -230.969879
v 293.968872 -353.553375 -196.423828
v 230.969849 -415.734833 -154.329208
v 159.094788 -461.939819 -106.303818
v 81.105812 -490.392670 -54.193291
v 90.120049 490.392639 -37.329144
v 176.776672 461.939758 -73.223473
v 256.639984 415.734802 -106.303947
v 326.640717 353.553375 -135.299164
v 384.088715 277.785095 -159.094849
v 426.776672 191.341705 -176.776871
v 453.063568 97.545158 -187.665115
v 461.939758 0.000024 -191.341766
v 453.063568 -97.545120 -187.665115
v 426.776672 -191.341660 -176.776840
v 384.088715 -277.785095 -159.094818
v 326.640717 -353.553375 -135.299103
v 256.639923 -415.734833 -106.303841
v 176.776627 -461.939819 -73.223366
v 90.119942 -490.392670 -37.329021
v 95.670929 490.392639 -19.030325
v 187.665100 461.939758 -37.329086
v 272.447571 415.734802 -54.193363
v 346.759949 353.553375 -68.974968
v 407.746399 277.785095 -81.105896
v 453.063690 191.341721 -90.120155
v 480.969696 97.545166 -95.670876
v 490.392609 0.000031 -97.545219
v 480.969696 -97.545113 -95.670860
v 453.063690 -191.341644 -90.120125
v 407.746399 -277.785095 -81.105850
v 346.759949 -353.553375 -68.974922
v 272.447510 -415.734833 -54.193279
v 187.665054 -461.939819 -37.328995
v 95.670822 -490.392670 -19.030231
v 97.545227 490.392639 -0.000193
v 191.341690 461.939758 -0.000176
v 277.785095 415.734802 -0.000172
v 353.553345 353.553375 -0.000120
v 415.734619 277.785095 -0.000091
v 461.939728 191.341721 -0.000174
v 490.392426 97.545174 -0.000055
v 499.999908 0.000038 -0.000070
v 490.392426 -97.545105 -0.000041
v 461.939728 -191.341644 -0.000146
v 415.734619 -277.785095 -0.000049
v 353.553345 -353.553375 -0.000066
v 277.785034 -415.734833 -0.000099
v 191.341629 -461.939819 -0.000091
v 97.545128 -490.392670 -0.000121
v 95.670921 490.392639 19.029938
v 187.665100 461.939758 37.328735
v 272.447540 415.734802 54.193012
v 346.759918 353.553375 68.974724
v 407.746338 277.785095 81.105705
v 453.063660 191.341721 90.119804
v 480.969604 97.545181 95.670761
v 490.392517 0.000045 97.545082
v 480.969604 -97.545097 95.670776
v 453.063660 -191.341644 90.119835
v 407.746338 -277.785095 81.105751
v 346.759918 -353.553375 68.974770
v 272.447479 -415.734833 54.193073
v 187.665039 -461.939819 37.328808
v 95.670822 -490.392670 19.029987
v 90.120041 490.392639 37.328747
v 176.776657 461.939758 73.223114
v 256.639923 415.734802 106.303589
v 326.640656 353.553375 135.298889
v 384.088623 277.785095 159.094666
v 426.776642 191.341736 176.776520
v 453.063416 97.545189 187.664978
v 461.939606 0.000052 191.341614
v 453.063416 -97.545090 187.664978
v 426.776642 -191.341629 176.776550
v 384.088623 -277.785095 159.094696
v 326.640656 -353.553375 135.298950
v 256.639862 -415.734833 106.303635
v 176.776596 -461.939819 73.223183
v 90.119942 -490.392670 37.328781
v 81.105888 490.392639 54.193027
v 159.094788 461.939758 106.303566
v 230.969818 415.734802 154.328949
v 293.968842 353.553375 196.423584
v 345.670624 277.785126 230.969681
v 384.088806 191.341736 256.639801
v 407.746277 97.545197 272.447357
v 415.734619 0.000059 277.784973
v 407.746277 -97.545082 272.447357
v 384.088806 -191.341629 256.639801
v 345.670624 -277.785065 230.969711
v 293.968842 -353.553375 196.423645
v 230.969757 -415.734833 154.328995
v 159.094727 -461.939819 106.303619
v 81.105804 -490.392670 54.193039
v 68.974884 490.392639 68.974693
v 135.298965 461.939758 135.298813
v 196.423660 415.734802 196.423538
v 249.999924 353.553406 249.999832
v 293.968658 277.785126 293.968658
v 326.640686 191.341751 326.640533
v 346.759674 97.545197 346.759674
v 353.553162 0.000065 353.553192
v 346.759674 -97.545082 346.759674
v 326.640686 -191.341614 326.640533
v 293.968658 -277.785065 293.968719
v 249.999924 -353.553345 249.999893
v 196.423615 -415.734833 196.423553
v 135.298935 -461.939819 135.298843
v 68.974815 -490.392670 68.974693
v 54.193214 490.392639 81.105690
v 106.303703 461.939758 159.094604
v 154.329056 415.734833 230.969666
v 196.423645 353.553406 293.968719
v 230.969650 277.785126 345.670563
v 256.639923 191.341751 384.088654
v 272.447296 97.545204 407.746216
v 277.784912 0.000069 415.734558
v 272.447296 -97.545074 407.746216
v 256.639923 -191.341614 384.088654
v 230.969650 -277.785065 345.670624
v 196.423645 -353.553345 293.968781
v 154.329025 -415.734802 230.969681
v 106.303688 -461.939819 159.094635
v 54.193161 -490.392670 81.105690
v 37.328930 490.392639 90.119843
v 73.223259 461.939758 176.776474
v 106.303696 415.734833 256.639740
v 135.298935 353.553406 326.640533
v 159.094604 277.785126 384.088501
v 176.776642 191.341751 426.776459
v 187.664902 97.545204 453.063324
v 191.341522 0.000073 461.939453
v 187.664902 -97.545074 453.063324
v 176.776642 -191.341614 426.776459
v 159.094604 -277.785065 384.088562
v 135.298935 -353.553345 326.640594
v 106.303665 -415.734802 256.639740
v 73.223244 -461.939819 176.776505
v 37.328896 -490.392670 90.119827
v 19.030113 490.392639 95.670723
v 37.328869 461.939758 187.664902
v 54.193119 415.734833 272.447296
v 68.974762 353.553406 346.759735
v 81.105659 277.785126 407.746155
v 90.119934 191.341751 453.063477
v 95.670670 97.545212 480.969421
v 97.544991 0.000075 490.392273
v 95.670670 -97.545067 480.969421
v 90.119934 -191.341614 453.063477
v 81.105659 -277.785065 407.746216
v 68.974762 -353.553345 346.759796
v 54.193100 -415.734802 272.447296
v 37.328861 -461.939819 187.664932
v 19.030102 -490.392670 95.670700
v -0.000032 -191.341614 461.939514
v -0.000136 -277.785065 415.734406
v -0.000076 -353.553345 353.553192
v -0.000039 -461.939819 191.341492
v -0.000008 -490.392670 97.544998
vn 0.0286 0.9565 -0.2902
vn 0.0975 -0.0975 -0.9904
vn 0.0097 -0.9951 -0.0980
vn 0.0097 0.9951 -0.0980
vn 0.0976 0.0975 -0.9904
vn 0.0286 -0.9565 -0.2902
vn 0.0938 0.2890 -0.9527
vn 0.0464 -0.8810 -0.4709
vn 0.0865 0.4696 -0.8786
vn 0.0624 -0.7715 -0.6332
vn 0.0759 0.6326 -0.7708
vn 0.0759 -0.6326 -0.7708
vn 0.0624 0.7715 -0.6332
vn 0.0865 -0.4696 -0.8786
vn 0.0464 0.8810 -0.4709
vn 0.0938 -0.2890 -0.9527
vn 0.2563 -0.4696 -0.8448
vn 0.1374 0.8810 -0.4528
vn 0.2779 -0.2890 -0.9161
vn 0.0846 0.9565 -0.2790
vn 0.2889 -0.0976 -0.9524
vn 0.0286 -0.9951 -0.0942
vn 0.0286 0.9951 -0.0942
vn 0.2889 0.0975 -0.9524
vn 0.0846 -0.9565 -0.2790
vn 0.2779 0.2890 -0.9161
vn 0.1374 -0.8810 -0.4528
vn 0.2563 0.4696 -0.8448
vn 0.1847 -0.7715 -0.6088
vn 0.2248 0.6326 -0.7412
vn 0.2248 -0.6326 -0.7412
vn 0.1847 0.7715 -0.6088
vn 0.4513 0.2890 -0.8443
vn 0.2230 -0.8810 -0.4173
vn 0.4162 0.4696 -0.7786
vn 0.2999 -0.7715 -0.5611
vn 0.3651 0.6326 -0.6831
vn 0.3651 -0.6326 -0.6831
vn 0.2999 0.7715 -0.5611
vn 0.4162 -0.4696 -0.7786
vn 0.2230 0.8810 -0.4173
vn 0.4513 -0.2890 -0.8443
vn 0.1374 0.9565 -0.2571
vn 0.4691 -0.0975 -0.8777
vn 0.0464 -0.9951 -0.0869
vn 0.0464 0.9951 -0.0869
vn 0.4691 0.0975 -0.8777
vn 0.1374 -0.9565 -0.2571
vn 0.3002 0.8810 -0.3658
vn 0.6073 -0.2890 -0.7400
vn 0.1850 0.9565 -0.2254
vn 0.6314 -0.0976 -0.7693
vn 0.0625 -0.9951 -0.0761
vn 0.0625 0.9951 -0.0761
vn 0.6314 0.0976 -0.7693
vn 0.1850 -0.9565 -0.2254
vn 0.6073 0.2890 -0.7400
vn 0.3002 -0.8810 -0.3658
vn 0.5601 0.4696 -0.6825
vn 0.4036 -0.7715 -0.4918
vn 0.4913 0.6326 -0.5987
vn 0.4913 -0.6326 -0.5987
vn 0.4036 0.7715 -0.4918
vn 0.5601 -0.4696 -0.6825
vn 0.6825 0.4696 -0.5601
vn 0.4918 -0.7715 -0.4036
vn 0.5987 0.6326 -0.4913
vn 0.5987 -0.6326 -0.4913
vn 0.4918 0.7715 -0.4036
vn 0.6825 -0.4696 -0.5601
vn 0.3658 0.8810 -0.3002
vn 0.7400 -0.2890 -0.6073
vn 0.2254 0.9565 -0.1850
vn 0.7693 -0.0976 -0.6314
vn 0.0761 -0.9951 -0.0625
vn 0.0761 0.9951 -0.0625
vn 0.7693 0.0976 -0.6314
vn 0.2254 -0.9565 -0.1850
vn 0.7400 0.2890 -0.6073
vn 0.3658 -0.8810 -0.3002
vn 0.2571 0.9565 -0.1374
vn 0.8777 -0.0976 -0.4691
vn 0.0869 -0.9951 -0.0464
vn 0.0869 0.9951 -0.0464
vn 0.8777 0.0975 -0.4691
vn 0.2571 -0.9565 -0.1374
vn 0.8443 0.2890 -0.4513
vn 0.4173 -0.8810 -0.2230
vn 0.7786 0.4696 -0.4162
vn 0.5611 -0.7715 -0.2999
vn 0.6831 0.6326 -0.3651
vn 0.6831 -0.6326 -0.3651
vn 0.5611 0.7715 -0.2999
vn 0.7786 -0.4696 -0.4162
vn 0.4173 0.8810 -0.2230
vn 0.8443 -0.2890 -0.4513
vn 0.6088 -0.7715 -0.1847
vn 0.7412 0.6326 -0.2248
vn 0.7412 -0.6326 -0.2248
vn 0.6088 0.7715 -0.1847
vn 0.8448 -0.4696 -0.2563
vn 0.4528 0.8810 -0.1374
vn 0.9161 -0.2890 -0.2779
vn 0.2790 0.9565 -0.0846
vn 0.9524 -0.0976 -0.2889
vn 0.0942 -0.9951 -0.0286
vn 0.0942 0.9951 -0.0286
vn 0.9524 0.0976 -0.2889
vn 0.2790 -0.9565 -0.0846
vn 0.9161 0.2890 -0.2779
vn 0.4528 -0.8810 -0.1374
vn 0.8448 0.4696 -0.2563
vn 0.9904 -0.0975 -0.0975
vn 0.0980 -0.9951 -0.0097
vn 0.0980 0.9951 -0.0097
vn 0.9904 0.0976 -0.0975
vn 0.2902 -0.9565 -0.0286
vn 0.9527 0.2890 -0.0938
vn 0.4709 -0.8810 -0.0464
vn 0.8786 0.4696 -0.0865
vn 0.6332 -0.7715 -0.0624
vn 0.7708 0.6326 -0.0759
vn 0.7708 -0.6326 -0.0759
vn 0.6332 0.7715 -0.0624
vn 0.8786 -0.4696 -0.0865
vn 0.4709 0.8810 -0.0464
vn 0.9527 -0.2890 -0.0938
vn 0.2902 0.9565 -0.0286
vn 0.7708 0.6326 0.0759
vn 0.7708 -0.6326 0.0759
vn 0.6332 0.7715 0.0624
vn 0.8786 -0.4696 0.0865
vn 0.4709 0.8810 0.0464
vn 0.9527 -0.2890 0.0938
vn 0.2902 0.9565 0.0286
vn 0.9904 -0.0976 0.0975
vn 0.0980 -0.9951 0.0097
vn 0.0980 0.9951 0.0097
vn 0.9904 0.0976 0.0975
vn 0.2902 -0.9565 0.0286
vn 0.9527 0.2890 0.0938
vn 0.4709 -0.8810 0.0464
vn 0.8786 0.4696 0.0865
vn 0.6332 -0.7715 0.0624
vn 0.0942 -0.9951 0.0286
vn 0.0942 0.9951 0.0286
vn 0.9524 0.0976 0.2889
vn 0.2790 -0.9565 0.0846
vn 0.9161 0.2890 0.2779
vn 0.4528 -0.8810 0.1374
vn 0.8448 0.4696 0.2563
vn 0.6088 -0.7715 0.1847
vn 0.7412 0.6326 0.2248
vn 0.7412 -0.6326 0.2248
vn 0.6088 0.7715 0.1847
vn 0.8448 -0.4696 0.2563
vn 0.4528 0.8810 0.1374
vn 0.9161 -0.2890 0.2779
vn 0.2790 0.9565 0.0846
vn 0.9524 -0.0976 0.2889
vn 0.6831 -0.6326 0.3651
vn 0.5611 0.7715 0.2999
vn 0.7786 -0.4696 0.4162
vn 0.4173 0.8810 0.2231
vn 0.8443 -0.2890 0.4513
vn 0.2571 0.9565 0.1374
vn 0.8777 -0.0976 0.4691
vn 0.0869 -0.9951 0.0464
vn 0.0869 0.9951 0.0464
vn 0.8777 0.0976 0.4691
vn 0.2571 -0.9565 0.1374
vn 0.8443 0.2890 0.4513
vn 0.4173 -0.8810 0.2230
vn 0.7786 0.4696 0.4162
vn 0.5611 -0.7715 0.2999
vn 0.6831 0.6326 0.3651
vn 0.7693 0.0976 0.6314
vn 0.2254 -0.9565 0.1850
vn 0.7400 0.2890 0.6073
vn 0.3658 -0.8810 0.3002
vn 0.6825 0.4696 0.5601
vn 0.4918 -0.7715 0.4036
vn 0.5987 0.6326 0.4913
vn 0.5987 -0.6326 0.4913
vn 0.4918 0.7715 0.4036
vn 0.6825 -0.4696 0.5601
vn 0.3658 0.8810 0.3002
vn 0.7400 -0.2890 0.6073
vn 0.2254 0.9565 0.1850
vn 0.7693 -0.0976 0.6314
vn 0.0761 -0.9951 0.0625
vn 0.0761 0.9951 0.0625
vn 0.4036 0.7715 0.4918
vn 0.5601 -0.4696 0.6825
vn 0.3002 0.8810 0.3658
vn 0.6073 -0.2890 0.7400
vn 0.1850 0.9565 0.2254
vn 0.6314 -0.0976 0.7693
vn 0.0625 -0.9951 0.0761
vn 0.0625 0.9951 0.0761
vn 0.6314 0.0976 0.7693
vn 0.1850 -0.9565 0.2254
vn 0.6073 0.2890 0.7400
vn 0.3002 -0.8810 0.3658
vn 0.5601 0.4696 0.6825
vn 0.4036 -0.7715 0.4918
vn 0.4913 0.6326 0.5987
vn 0.4913 -0.6326 0.5987
vn 0.4513 0.2890 0.8443
vn 0.2230 -0.8810 0.4173
vn 0.4162 0.4696 0.7786
vn 0.2999 -0.7715 0.5611
vn 0.3651 0.6326 0.6831
vn 0.3651 -0.6326 0.6831
vn 0.2999 0.7715 0.5611
vn 0.4162 -0.4696 0.7786
vn 0.2230 0.8810 0.4173
vn 0.4513 -0.2890 0.8443
vn 0.1374 0.9566 0.2571
vn 0.4691 -0.0976 0.8777
vn 0.0464 -0.9951 0.0869
vn 0.0464 0.9951 0.0869
vn 0.4691 0.0976 0.8777
vn 0.1374 -0.9565 0.2571
vn 0.1374 0.8810 0.4528
vn 0.2779 -0.2890 0.9161
vn 0.0846 0.9565 0.2790
vn 0.2889 -0.0976 0.9524
vn 0.0286 -0.9951 0.0942
vn 0.0286 0.9951 0.0942
vn 0.2889 0.0976 0.9524
vn 0.0846 -0.9565 0.2790
vn 0.2779 0.2890 0.9161
vn 0.1374 -0.8810 0.4528
vn 0.2563 0.4696 0.8448
vn 0.1847 -0.7715 0.6088
vn 0.2248 0.6326 0.7412
vn 0.2248 -0.6326 0.7412
vn 0.1847 0.7715 0.6088
vn 0.2563 -0.4696 0.8448
vn 0.0464 -0.8810 0.4709
vn 0.0865 0.4696 0.8786
vn 0.0624 -0.7715 0.6332
vn 0.0759 0.6326 0.7708
vn 0.0759 -0.6326 0.7708
vn 0.0624 0.7715 0.6332
vn 0.0865 -0.4696 0.8786
vn 0.0464 0.8810 0.4709
vn 0.0938 -0.2890 0.9527
vn 0.0286 0.9565 0.2902
vn 0.0975 -0.0976 0.9904
vn 0.0097 -0.9951 0.0980
vn 0.0097 0.9951 0.0980
vn 0.0975 0.0976 0.9904
vn 0.0286 -0.9565 0.2902
vn 0.0938 0.2890 0.9527
vn -0.0938 -0.2890 0.9527
vn -0.0286 0.9565 0.2902
vn -0.0975 -0.0976 0.9904
vn -0.0097 -0.9951 0.0980
vn -0.0097 0.9951 0.0980
vn -0.0976 0.0976 0.9904
vn -0.0286 -0.9565 0.2902
vn -0.0938 0.2890 0.9527
vn -0.0464 -0.8810 0.4709
vn -0.0865 0.4696 0.8786
vn -0.0624 -0.7715 0.6332
vn -0.0759 0.6326 0.7708
vn -0.0759 -0.6326 0.7708
vn -0.0624 0.7715 0.6332
vn -0.0865 -0.4696 0.8786
vn -0.0464 0.8810 0.4709
vn -0.2563 0.4696 0.8448
vn -0.1847 -0.7715 0.6088
vn -0.2248 0.6326 0.7412
vn -0.2248 -0.6326 0.7412
vn -0.1847 0.7715 0.6088
vn -0.2563 -0.4696 0.8448
vn -0.1374 0.8810 0.4528
vn -0.2779 -0.2890 0.9161
vn -0.0846 0.9565 0.2790
vn -0.2889 -0.0976 0.9524
vn -0.0286 -0.9951 0.0942
vn -0.0286 0.9951 0.0942
vn -0.2889 0.0976 0.9524
vn -0.0846 -0.9565 0.2790
vn -0.2779 0.2890 0.9161
vn -0.1374 -0.8810 0.4528
vn -0.1374 0.9565 0.2571
vn -0.4691 -0.0976 0.8777
vn -0.0464 -0.9951 0.0869
vn -0.0464 0.9951 0.0869
vn -0.4691 0.0976 0.8777
vn -0.1374 -0.9565 0.2571
vn -0.4513 0.2890 0.8443
vn -0.2230 -0.8810 0.4173
vn -0.4162 0.4696 0.7786
vn -0.2999 -0.7715 0.5611
vn -0.3651 0.6326 0.6831
vn -0.3651 -0.6326 0.6831
vn -0.2999 0.7715 0.5611
vn -0.4162 -0.4696 0.7786
vn -0.2230 0.8810 0.4173
vn -0.4513 -0.2890 0.8443
vn -0.4036 -0.7715 0.4918
vn -0.4913 0.6326 0.5987
vn -0.4913 -0.6326 0.5987
vn -0.4036 0.7715 0.4918
vn -0.5601 -0.4696 0.6825
vn -0.3002 0.8810 0.3658
vn -0.6073 -0.2890 0.7400
vn -0.1850 0.9565 0.2254
vn -0.6314 -0.0976 0.7693
vn -0.0625 -0.9951 0.0761
vn -0.0625 0.9951 0.0761
vn -0.6314 0.0976 0.7693
vn -0.1850 -0.9565 0.2254
vn -0.6073 0.2890 0.7400
vn -0.3002 -0.8810 0.3658
vn -0.5601 0.4696 0.6825
vn -0.7693 -0.0976 0.6314
vn -0.0761 -0.9951 0.0625
vn -0.0761 0.9951 0.0625
vn -0.7693 0.0976 0.6314
vn -0.2254 -0.9565 0.1850
vn -0.7400 0.2890 0.6073
vn -0.3658 -0.8810 0.3002
vn -0.6825 0.4696 0.5601
vn -0.4918 -0.7715 0.4036
vn -0.5987 0.6326 0.4913
vn -0.5987 -0.6326 0.4913
vn -0.4918 0.7715 0.4036
vn -0.6825 -0.4696 0.5601
vn -0.3658 0.8810 0.3002
vn -0.7400 -0.2890 0.6073
vn -0.2254 0.9565 0.1850
vn -0.6831 0.6326 0.3651
vn -0.6831 -0.6326 0.3651
vn -0.5611 0.7715 0.2999
vn -0.7786 -0.4696 0.4162
vn -0.4173 0.8810 0.2231
vn -0.8443 -0.2890 0.4513
vn -0.2571 0.9565 0.1374
vn -0.8777 -0.0976 0.4691
vn -0.0869 -0.9951 0.0464
vn -0.0869 0.9951 0.0464
vn -0.8777 0.0976 0.4691
vn -0.2571 -0.9565 0.1374
vn -0.8443 0.2890 0.4513
vn -0.4173 -0.8810 0.2231
vn -0.7786 0.4696 0.4162
vn -0.5611 -0.7715 0.2999
vn -0.0942 0.9951 0.0286
vn -0.9524 0.0976 0.2889
vn -0.2790 -0.9565 0.0846
vn -0.9161 0.2890 0.2779
vn -0.4528 -0.8810 0.1374
vn -0.8448 0.4696 0.2563
vn -0.6088 -0.7715 0.1847
vn -0.7412 0.6326 0.2248
vn -0.7412 -0.6326 0.2248
vn -0.6088 0.7715 0.1847
vn -0.8448 -0.4696 0.2563
vn -0.4528 0.8810 0.1374
vn -0.9161 -0.2890 0.2779
vn -0.2790 0.9565 0.0846
vn -0.9524 -0.0976 0.2889
vn -0.0942 -0.9951 0.0286
vn -0.6332 0.7715 0.0624
vn -0.8786 -0.4696 0.0865
vn -0.4709 0.8810 0.0464
vn -0.9527 -0.2890 0.0938
vn -0.2902 0.9565 0.0286
vn -0.9904 -0.0976 0.0975
vn -0.0980 -0.9951 0.0097
vn -0.0980 0.9951 0.0097
vn -0.9904 0.0976 0.0975
vn -0.2902 -0.9565 0.0286
vn -0.9527 0.2890 0.0938
vn -0.4709 -0.8810 0.0464
vn -0.8786 0.4696 0.0865
vn -0.6332 -0.7715 0.0624
vn -0.7708 0.6326 0.0759
vn -0.7708 -0.6326 0.0759
vn -0.2902 -0.9565 -0.0286
vn -0.9527 0.2890 -0.0938
vn -0.4709 -0.8810 -0.0464
vn -0.8786 0.4696 -0.0865
vn -0.6332 -0.7715 -0.0624
vn -0.7708 0.6326 -0.0759
vn -0.7708 -0.6326 -0.0759
vn -0.6332 0.7715 -0.0624
vn -0.8786 -0.4696 -0.0865
vn -0.4709 0.8810 -0.0464
vn -0.9527 -0.2890 -0.0938
vn -0.2902 0.9565 -0.0286
vn -0.9904 -0.0976 -0.0975
vn -0.0980 -0.9951 -0.0097
vn -0.0980 0.9951 -0.0097
vn -0.9904 0.0976 -0.0975
vn -0.8448 -0.4696 -0.2563
vn -0.4528 0.8810 -0.1374
vn -0.9161 -0.2890 -0.2779
vn -0.2790 0.9565 -0.0846
vn -0.9524 -0.0976 -0.2889
vn -0.0942 -0.9951 -0.0286
vn -0.0942 0.9951 -0.0286
vn -0.9524 0.0976 -0.2889
vn -0.2790 -0.9565 -0.0846
vn -0.9161 0.2890 -0.2779
vn -0.4528 -0.8810 -0.1374
vn -0.8448 0.4696 -0.2563
vn -0.6088 -0.7715 -0.1847
vn -0.7412 0.6326 -0.2248
vn -0.7412 -0.6326 -0.2248
vn -0.6088 0.7715 -0.1847
vn -0.8443 0.2890 -0.4513
vn -0.4173 -0.8810 -0.2230
vn -0.7786 0.4696 -0.4162
vn -0.5611 -0.7715 -0.2999
vn -0.6831 0.6326 -0.3651
vn -0.6831 -0.6326 -0.3651
vn -0.5611 0.7715 -0.2999
vn -0.7786 -0.4696 -0.4162
vn -0.4173 0.8810 -0.2231
vn -0.8443 -0.2890 -0.4513
vn -0.2571 0.9565 -0.1374
vn -0.8777 -0.0976 -0.4691
vn -0.0869 -0.9951 -0.0464
vn -0.0869 0.9951 -0.0464
vn -0.8777 0.0976 -0.4691
vn -0.2571 -0.9565 -0.1374
vn -0.3658 0.8810 -0.3002
vn -0.7400 -0.2890 -0.6073
vn -0.2254 0.9566 -0.1850
vn -0.7693 -0.0976 -0.6314
vn -0.0761 -0.9951 -0.0625
vn -0.0761 0.9951 -0.0625
vn -0.7693 0.0976 -0.6314
vn -0.2254 -0.9565 -0.1850
vn -0.7400 0.2890 -0.6073
vn -0.3658 -0.8810 -0.3002
vn -0.6825 0.4696 -0.5601
vn -0.4918 -0.7715 -0.4036
vn -0.5987 0.6326 -0.4913
vn -0.5987 -0.6326 -0.4913
vn -0.4918 0.7715 -0.4036
vn -0.6825 -0.4696 -0.5601
vn -0.3002 -0.8810 -0.3658
vn -0.5601 0.4696 -0.6825
vn -0.4036 -0.7715 -0.4918
vn -0.4913 0.6326 -0.5987
vn -0.4913 -0.6326 -0.5987
vn -0.4036 0.7715 -0.4918
vn -0.5601 -0.4696 -0.6825
vn -0.3002 0.8810 -0.3658
vn -0.6073 -0.2890 -0.7400
vn -0.1850 0.9565 -0.2254
vn -0.6314 -0.0976 -0.7693
vn -0.0625 -0.9951 -0.0761
vn -0.0625 0.9951 -0.0761
vn -0.6314 0.0976 -0.7693
vn -0.1850 -0.9565 -0.2254
vn -0.6073 0.2890 -0.7400
vn -0.4513 -0.2890 -0.8443
vn -0.1374 0.9565 -0.2571
vn -0.4691 -0.0976 -0.8777
vn -0.0464 -0.9951 -0.0869
vn -0.0464 0.9951 -0.0869
vn -0.4691 0.0976 -0.8777
vn -0.1374 -0.9565 -0.2571
vn -0.4513 0.2890 -0.8443
vn -0.2230 -0.8810 -0.4173
vn -0.4162 0.4696 -0.7786
vn -0.2999 -0.7715 -0.5611
vn -0.3651 0.6326 -0.6831
vn -0.3651 -0.6326 -0.6831
vn -0.2999 0.7715 -0.5611
vn -0.4162 -0.4696 -0.7786
vn -0.2230 0.8810 -0.4173
vn -0.2563 0.4696 -0.8448
vn -0.1847 -0.7715 -0.6088
vn -0.2248 0.6326 -0.7412
vn -0.2248 -0.6326 -0.7412
vn -0.1847 0.7715 -0.6088
vn -0.2563 -0.4696 -0.8448
vn -0.1374 0.8810 -0.4528
vn -0.2779 -0.2890 -0.9161
vn -0.0846 0.9565 -0.2790
vn -0.2889 -0.0976 -0.9524
vn -0.0286 -0.9951 -0.0942
vn -0.0286 0.9951 -0.0942
vn -0.2889 0.0976 -0.9524
vn -0.0846 -0.9565 -0.2790
vn -0.2779 0.2890 -0.9161
vn -0.1374 -0.8810 -0.4528
vn -0.0286 0.9565 -0.2902
vn -0.0976 -0.0976 -0.9904
vn -0.0097 -0.9951 -0.0980
vn -0.0097 0.9951 -0.0980
vn -0.0976 0.0976 -0.9904
vn -0.0286 -0.9565 -0.2902
vn -0.0938 0.2890 -0.9527
vn -0.0464 -0.8810 -0.4709
vn -0.0865 0.4696 -0.8786
vn -0.0624 -0.7715 -0.6332
vn -0.0759 0.6326 -0.7708
vn -0.0759 -0.6326 -0.7708
vn -0.0624 0.7715 -0.6332
vn -0.0865 -0.4696 -0.8786
vn -0.0464 0.8810 -0.4709
vn -0.0938 -0.2890 -0.9527
vn 0.0976 -0.0976 -0.9904
vn 0.0975 0.0975 -0.9904
vn 0.2231 -0.8810 -0.4173
vn 0.6314 -0.0975 -0.7693
vn 0.6314 0.0975 -0.7693
vn 0.8777 -0.0975 -0.4691
vn 0.8777 0.0976 -0.4691
vn 0.4173 0.8810 -0.2231
vn 0.9904 -0.0976 -0.0975
vn 0.9904 -0.0976 0.0976
vn 0.4173 0.8810 0.2230
vn 0.2231 -0.8810 0.4173
vn 0.1374 0.9565 0.2571
vn -0.0976 -0.0976 0.9904
vn -0.1374 0.9566 0.2571
vn -0.2231 0.8810 0.4173
vn -0.4173 0.8810 0.2230
vn -0.4173 -0.8810 0.2230
vn -0.9904 -0.0976 -0.0976
vn -0.9904 0.0976 -0.0976
vn -0.2254 0.9565 -0.1850
vn -0.2231 0.8810 -0.4173
vn -0.0976 -0.0975 -0.9904
vn -0.0976 0.0975 -0.9904
vt 0.718750 0.062500
vt 0.750000 0.125000
vt 0.750000 0.062500
vt 0.718750 0.500000
vt 0.750000 0.562500
vt 0.750000 0.500000
vt 0.750000 0.937500
vt 0.718750 0.937500
vt 0.734375 1.000000
vt 0.734375 0.000000
vt 0.718750 0.437500
vt 0.750000 0.437500
vt 0.750000 0.875000
vt 0.718750 0.375000
vt 0.750000 0.375000
vt 0.750000 0.812500
vt 0.718750 0.875000
vt 0.718750 0.312500
vt 0.750000 0.312500
vt 0.718750 0.750000
vt 0.750000 0.750000
vt 0.718750 0.250000
vt 0.750000 0.250000
vt 0.718750 0.687500
vt 0.750000 0.687500
vt 0.718750 0.187500
vt 0.750000 0.187500
vt 0.750000 0.625000
vt 0.718750 0.125000
vt 0.718750 0.562500
vt 0.687500 0.625000
vt 0.718750 0.625000
vt 0.687500 0.125000
vt 0.687500 0.062500
vt 0.687500 0.500000
vt 0.687500 0.937500
vt 0.703125 1.000000
vt 0.703125 0.000000
vt 0.687500 0.437500
vt 0.687500 0.875000
vt 0.687500 0.812500
vt 0.718750 0.812500
vt 0.687500 0.312500
vt 0.687500 0.750000
vt 0.687500 0.687500
vt 0.687500 0.187500
vt 0.656250 0.375000
vt 0.687500 0.375000
vt 0.656250 0.812500
vt 0.656250 0.250000
vt 0.687500 0.250000
vt 0.656250 0.687500
vt 0.656250 0.187500
vt 0.656250 0.625000
vt 0.656250 0.125000
vt 0.687500 0.562500
vt 0.656250 0.062500
vt 0.656250 0.500000
vt 0.656250 0.937500
vt 0.671875 1.000000
vt 0.671875 0.000000
vt 0.656250 0.437500
vt 0.656250 0.875000
vt 0.625000 0.125000
vt 0.625000 0.562500
vt 0.656250 0.562500
vt 0.625000 0.937500
vt 0.640625 1.000000
vt 0.640625 0.000000
vt 0.625000 0.062500
vt 0.625000 0.437500
vt 0.625000 0.875000
vt 0.625000 0.812500
vt 0.656250 0.312500
vt 0.625000 0.375000
vt 0.625000 0.750000
vt 0.656250 0.750000
vt 0.625000 0.250000
vt 0.625000 0.687500
vt 0.625000 0.187500
vt 0.625000 0.625000
vt 0.625000 0.312500
vt 0.593750 0.375000
vt 0.593750 0.750000
vt 0.593750 0.250000
vt 0.593750 0.625000
vt 0.593750 0.125000
vt 0.593750 0.562500
vt 0.593750 0.062500
vt 0.625000 0.500000
vt 0.593750 0.937500
vt 0.609375 1.000000
vt 0.609375 0.000000
vt 0.593750 0.437500
vt 0.593750 0.875000
vt 0.593750 0.812500
vt 0.562500 0.125000
vt 0.562500 0.500000
vt 0.593750 0.500000
vt 0.562500 0.937500
vt 0.578125 1.000000
vt 0.578125 0.000000
vt 0.562500 0.062500
vt 0.562500 0.437500
vt 0.562500 0.875000
vt 0.562500 0.375000
vt 0.562500 0.812500
vt 0.593750 0.312500
vt 0.562500 0.312500
vt 0.562500 0.687500
vt 0.593750 0.687500
vt 0.562500 0.187500
vt 0.593750 0.187500
vt 0.562500 0.625000
vt 0.562500 0.750000
vt 0.531250 0.812500
vt 0.531250 0.250000
vt 0.562500 0.250000
vt 0.531250 0.687500
vt 0.531250 0.187500
vt 0.531250 0.625000
vt 0.531250 0.125000
vt 0.562500 0.562500
vt 0.531250 0.062500
vt 0.531250 0.500000
vt 0.531250 0.937500
vt 0.546875 1.000000
vt 0.546875 0.000000
vt 0.531250 0.437500
vt 0.531250 0.875000
vt 0.531250 0.375000
vt 0.500000 0.500000
vt 0.531250 0.562500
vt 0.500000 0.937500
vt 0.515625 1.000000
vt 0.515625 0.000000
vt 0.500000 0.062500
vt 0.500000 0.437500
vt 0.500000 0.875000
vt 0.500000 0.375000
vt 0.500000 0.812500
vt 0.531250 0.312500
vt 0.500000 0.750000
vt 0.531250 0.750000
vt 0.500000 0.250000
vt 0.500000 0.687500
vt 0.500000 0.625000
vt 0.500000 0.187500
vt 0.468750 0.250000
vt 0.500000 0.312500
vt 0.468750 0.750000
vt 0.468750 0.187500
vt 0.468750 0.625000
vt 0.468750 0.125000
vt 0.500000 0.125000
vt 0.500000 0.562500
vt 0.468750 0.500000
vt 0.468750 0.937500
vt 0.484374 1.000000
vt 0.484375 0.000000
vt 0.468750 0.062500
vt 0.468750 0.437500
vt 0.468750 0.875000
vt 0.468750 0.375000
vt 0.468750 0.812500
vt 0.437500 0.937500
vt 0.453124 1.000000
vt 0.453125 0.000000
vt 0.437500 0.062500
vt 0.437500 0.437500
vt 0.437500 0.875000
vt 0.437500 0.375000
vt 0.468750 0.312500
vt 0.437500 0.750000
vt 0.437500 0.250000
vt 0.468750 0.687500
vt 0.437500 0.187500
vt 0.437500 0.625000
vt 0.437500 0.125000
vt 0.468750 0.562500
vt 0.437500 0.500000
vt 0.437500 0.687500
vt 0.406250 0.750000
vt 0.406250 0.250000
vt 0.406250 0.625000
vt 0.406250 0.125000
vt 0.437500 0.562500
vt 0.406250 0.500000
vt 0.406250 0.937500
vt 0.421874 1.000000
vt 0.421875 0.000000
vt 0.406250 0.062500
vt 0.406250 0.875000
vt 0.406250 0.375000
vt 0.406250 0.812500
vt 0.437500 0.812500
vt 0.437500 0.312500
vt 0.375000 0.437500
vt 0.406250 0.437500
vt 0.375000 0.875000
vt 0.375000 0.375000
vt 0.406250 0.312500
vt 0.375000 0.750000
vt 0.375000 0.250000
vt 0.375000 0.687500
vt 0.406250 0.687500
vt 0.406250 0.187500
vt 0.375000 0.625000
vt 0.375000 0.125000
vt 0.406250 0.562500
vt 0.375000 0.062500
vt 0.375000 0.500000
vt 0.375000 0.937500
vt 0.390625 1.000000
vt 0.390625 0.000000
vt 0.375000 0.187500
vt 0.343750 0.250000
vt 0.343750 0.625000
vt 0.343750 0.187500
vt 0.375000 0.562500
vt 0.343750 0.125000
vt 0.343750 0.500000
vt 0.343750 0.937500
vt 0.359375 1.000000
vt 0.359375 0.000000
vt 0.343750 0.062500
vt 0.343750 0.875000
vt 0.343750 0.375000
vt 0.343750 0.812500
vt 0.375000 0.812500
vt 0.375000 0.312500
vt 0.343750 0.750000
vt 0.312500 0.375000
vt 0.343750 0.437500
vt 0.312500 0.812500
vt 0.343750 0.312500
vt 0.312500 0.750000
vt 0.312500 0.250000
vt 0.312500 0.687500
vt 0.343750 0.687500
vt 0.312500 0.187500
vt 0.312500 0.625000
vt 0.343750 0.562500
vt 0.312500 0.062500
vt 0.312500 0.500000
vt 0.312500 0.937500
vt 0.328125 1.000000
vt 0.328125 0.000000
vt 0.312500 0.437500
vt 0.312500 0.875000
vt 0.281250 0.125000
vt 0.312500 0.125000
vt 0.312500 0.562500
vt 0.281250 0.625000
vt 0.281250 0.062500
vt 0.281250 0.500000
vt 0.281250 0.937500
vt 0.296875 1.000000
vt 0.296875 0.000000
vt 0.281250 0.437500
vt 0.281250 0.875000
vt 0.281250 0.375000
vt 0.281250 0.812500
vt 0.312500 0.312500
vt 0.281250 0.250000
vt 0.281250 0.687500
vt 0.281250 0.187500
vt 0.250000 0.812500
vt 0.281250 0.312500
vt 0.250000 0.375000
vt 0.281250 0.750000
vt 0.250000 0.250000
vt 0.250000 0.750000
vt 0.250000 0.625000
vt 0.250000 0.187500
vt 0.281250 0.562500
vt 0.250000 0.125000
vt 0.250000 0.500000
vt 0.250000 0.937500
vt 0.265625 1.000000
vt 0.265625 0.000000
vt 0.250000 0.062500
vt 0.250000 0.437500
vt 0.250000 0.875000
vt 0.250000 0.562500
vt 0.218750 0.625000
vt 0.218750 0.125000
vt 0.218750 0.500000
vt 0.218750 0.937500
vt 0.234375 1.000000
vt 0.234375 0.000000
vt 0.218750 0.062500
vt 0.218750 0.437500
vt 0.218750 0.875000
vt 0.218750 0.375000
vt 0.218750 0.812500
vt 0.250000 0.312500
vt 0.218750 0.250000
vt 0.250000 0.687500
vt 0.218750 0.750000
vt 0.218750 0.187500
vt 0.218750 0.312500
vt 0.187500 0.375000
vt 0.187500 0.812500
vt 0.187500 0.250000
vt 0.187500 0.687500
vt 0.218750 0.687500
vt 0.187500 0.187500
vt 0.187500 0.625000
vt 0.187500 0.125000
vt 0.218750 0.562500
vt 0.187500 0.062500
vt 0.187500 0.562500
vt 0.187500 0.937500
vt 0.203125 1.000000
vt 0.203125 0.000000
vt 0.187500 0.437500
vt 0.187500 0.875000
vt 0.156250 0.125000
vt 0.156250 0.500000
vt 0.187500 0.500000
vt 0.156250 0.937500
vt 0.171875 1.000000
vt 0.171875 0.000000
vt 0.156250 0.062500
vt 0.156250 0.437500
vt 0.156250 0.875000
vt 0.156250 0.375000
vt 0.156250 0.812500
vt 0.187500 0.312500
vt 0.156250 0.750000
vt 0.187500 0.750000
vt 0.156250 0.250000
vt 0.156250 0.625000
vt 0.125000 0.812500
vt 0.125000 0.250000
vt 0.156250 0.312500
vt 0.156250 0.687500
vt 0.125000 0.750000
vt 0.125000 0.187500
vt 0.156250 0.187500
vt 0.125000 0.625000
vt 0.156250 0.562500
vt 0.125000 0.062500
vt 0.125000 0.562500
vt 0.125000 0.937500
vt 0.140625 1.000000
vt 0.140625 0.000000
vt 0.125000 0.437500
vt 0.125000 0.875000
vt 0.125000 0.375000
vt 0.093750 0.500000
vt 0.125000 0.500000
vt 0.093750 0.937500
vt 0.109375 1.000000
vt 0.109375 0.000000
vt 0.093750 0.062500
vt 0.093750 0.437500
vt 0.093750 0.375000
vt 0.093750 0.812500
vt 0.125000 0.312500
vt 0.093750 0.250000
vt 0.125000 0.687500
vt 0.093750 0.750000
vt 0.093750 0.187500
vt 0.093750 0.625000
vt 0.125000 0.125000
vt 0.062500 0.250000
vt 0.093750 0.312500
vt 0.093750 0.687500
vt 0.062500 0.750000
vt 0.062500 0.187500
vt 0.062500 0.625000
vt 0.093750 0.125000
vt 0.093750 0.562500
vt 0.062500 0.062500
vt 0.062500 0.500000
vt 0.062500 0.937500
vt 0.078125 1.000000
vt 0.078125 0.000000
vt 0.062500 0.437500
vt 0.062500 0.875000
vt 0.093750 0.875000
vt 0.062500 0.375000
vt 0.062500 0.812500
vt 0.046875 0.000000
vt 0.031250 0.062500
vt 0.031250 0.500000
vt 0.031250 0.937500
vt 0.031250 0.375000
vt 0.031250 0.812500
vt 0.062500 0.312500
vt 0.031250 0.250000
vt 0.062500 0.687500
vt 0.031250 0.750000
vt 0.031250 0.187500
vt 0.031250 0.625000
vt 0.031250 0.125000
vt 0.062500 0.125000
vt 0.062500 0.562500
vt 0.046875 1.000000
vt 0.000000 0.187500
vt 0.000000 0.625000
vt 0.031250 0.687500
vt 0.031250 0.562500
vt 0.000000 0.062500
vt 0.000000 0.500000
vt 0.000000 0.937500
vt 0.015625 1.000000
vt 0.015625 0.000000
vt 0.031250 0.437500
vt 0.031250 0.875000
vt 0.000000 0.375000
vt 0.000000 0.812500
vt 0.031250 0.312500
vt 0.000000 0.750000
vt 0.000000 0.312500
vt 0.000000 0.687500
vt 1.000000 0.875000
vt 0.968750 0.937500
vt 1.000000 0.937500
vt 0.968750 0.375000
vt 1.000000 0.437500
vt 1.000000 0.375000
vt 0.968750 0.812500
vt 1.000000 0.812500
vt 1.000000 0.312500
vt 0.968750 0.750000
vt 1.000000 0.750000
vt 1.000000 0.250000
vt 0.968750 0.312500
vt 0.968750 0.687500
vt 1.000000 0.687500
vt 0.968750 0.187500
vt 1.000000 0.187500
vt 0.968750 0.625000
vt 1.000000 0.625000
vt 0.968750 0.125000
vt 1.000000 0.125000
vt 1.000000 0.562500
vt 0.968750 0.062500
vt 1.000000 0.062500
vt 0.968750 0.500000
vt 1.000000 0.500000
vt 0.984375 1.000000
vt 0.984375 0.000000
vt 0.937500 0.625000
vt 0.937500 0.125000
vt 0.968750 0.562500
vt 0.937500 0.062500
vt 0.937500 0.500000
vt 0.937500 0.937500
vt 0.953125 1.000000
vt 0.953125 0.000000
vt 0.937500 0.437500
vt 0.968750 0.437500
vt 0.937500 0.875000
vt 0.968750 0.875000
vt 0.937500 0.375000
vt 0.937500 0.812500
vt 0.937500 0.750000
vt 0.937500 0.250000
vt 0.968750 0.250000
vt 0.937500 0.687500
vt 0.937500 0.187500
vt 0.906250 0.375000
vt 0.906250 0.812500
vt 0.937500 0.312500
vt 0.906250 0.250000
vt 0.906250 0.750000
vt 0.906250 0.625000
vt 0.906250 0.125000
vt 0.937500 0.562500
vt 0.906250 0.062500
vt 0.906250 0.500000
vt 0.906250 0.937500
vt 0.921875 1.000000
vt 0.921875 0.000000
vt 0.906250 0.875000
vt 0.875000 0.125000
vt 0.906250 0.187500
vt 0.906250 0.562500
vt 0.875000 0.625000
vt 0.875000 0.062500
vt 0.875000 0.500000
vt 0.875000 0.937500
vt 0.890625 1.000000
vt 0.890625 0.000000
vt 0.906250 0.437500
vt 0.875000 0.875000
vt 0.875000 0.375000
vt 0.875000 0.812500
vt 0.906250 0.312500
vt 0.875000 0.250000
vt 0.906250 0.687500
vt 0.875000 0.750000
vt 0.875000 0.187500
vt 0.843750 0.812500
vt 0.875000 0.312500
vt 0.843750 0.375000
vt 0.843750 0.750000
vt 0.843750 0.250000
vt 0.875000 0.687500
vt 0.843750 0.625000
vt 0.843750 0.125000
vt 0.875000 0.562500
vt 0.843750 0.062500
vt 0.843750 0.500000
vt 0.843750 0.937500
vt 0.859375 1.000000
vt 0.859375 0.000000
vt 0.843750 0.437500
vt 0.875000 0.437500
vt 0.843750 0.875000
vt 0.843750 0.562500
vt 0.812500 0.625000
vt 0.812500 0.062500
vt 0.812500 0.500000
vt 0.812500 0.937500
vt 0.828125 1.000000
vt 0.828125 0.000000
vt 0.812500 0.437500
vt 0.812500 0.375000
vt 0.812500 0.812500
vt 0.843750 0.312500
vt 0.812500 0.750000
vt 0.812500 0.250000
vt 0.843750 0.687500
vt 0.812500 0.187500
vt 0.843750 0.187500
vt 0.812500 0.312500
vt 0.781250 0.375000
vt 0.781250 0.750000
vt 0.781250 0.250000
vt 0.812500 0.687500
vt 0.781250 0.187500
vt 0.781250 0.625000
vt 0.781250 0.125000
vt 0.812500 0.125000
vt 0.812500 0.562500
vt 0.781250 0.062500
vt 0.781250 0.500000
vt 0.781250 0.937500
vt 0.796875 1.000000
vt 0.796875 0.000000
vt 0.781250 0.437500
vt 0.781250 0.875000
vt 0.812500 0.875000
vt 0.781250 0.812500
vt 0.781250 0.562500
vt 0.765625 1.000000
vt 0.765625 0.000000
vt 0.781250 0.312500
vt 0.781250 0.687500
vt 0.000000 0.250000
vt 0.000000 0.125000
vt 0.000000 0.562500
vt 0.000000 0.437500
vt 0.000000 0.875000
s 0
usemtl マテリアル
f 25/1/1 481/2/1 482/3/1
f 18/4/2 7/5/2 8/6/2
f 1/7/3 11/8/3 297/9/3
f 206/10/4 25/1/4 482/3/4
f 19/11/5 8/6/5 9/12/5
f 2/13/6 11/8/6 1/7/6
f 20/14/7 9/12/7 478/15/7
f 3/16/8 12/17/8 2/13/8
f 21/18/9 478/15/9 479/19/9
f 14/20/10 3/16/10 4/21/10
f 22/22/11 479/19/11 480/23/11
f 15/24/12 4/21/12 5/25/12
f 23/26/13 480/23/13 10/27/13
f 6/28/14 15/24/14 5/25/14
f 24/29/15 10/27/15 481/2/15
f 17/30/16 6/28/16 7/5/16
f 31/31/17 15/24/17 16/32/17
f 39/33/18 23/26/18 24/29/18
f 17/30/19 31/31/19 16/32/19
f 40/34/20 24/29/20 25/1/20
f 33/35/21 17/30/21 18/4/21
f 11/8/22 26/36/22 297/37/22
f 206/38/23 40/34/23 25/1/23
f 34/39/24 18/4/24 19/11/24
f 27/40/25 11/8/25 12/17/25
f 20/14/26 34/39/26 19/11/26
f 28/41/27 12/17/27 13/42/27
f 36/43/28 20/14/28 21/18/28
f 29/44/29 13/42/29 14/20/29
f 22/22/30 36/43/30 21/18/30
f 30/45/31 14/20/31 15/24/31
f 38/46/32 22/22/32 23/26/32
f 50/47/33 34/39/33 35/48/33
f 43/49/34 27/40/34 28/41/34
f 36/43/35 50/47/35 35/48/35
f 29/44/36 43/49/36 28/41/36
f 52/50/37 36/43/37 37/51/37
f 45/52/38 29/44/38 30/45/38
f 53/53/39 37/51/39 38/46/39
f 46/54/40 30/45/40 31/31/40
f 54/55/41 38/46/41 39/33/41
f 32/56/42 46/54/42 31/31/42
f 55/57/43 39/33/43 40/34/43
f 48/58/44 32/56/44 33/35/44
f 26/36/45 41/59/45 297/60/45
f 206/61/46 55/57/46 40/34/46
f 49/62/47 33/35/47 34/39/47
f 42/63/48 26/36/48 27/40/48
f 69/64/49 53/53/49 54/55/49
f 62/65/50 46/54/50 47/66/50
f 55/57/51 69/64/51 54/55/51
f 48/58/52 62/65/52 47/66/52
f 41/59/53 56/67/53 297/68/53
f 206/69/54 70/70/54 55/57/54
f 64/71/55 48/58/55 49/62/55
f 57/72/56 41/59/56 42/63/56
f 50/47/57 64/71/57 49/62/57
f 58/73/58 42/63/58 43/49/58
f 51/74/59 65/75/59 50/47/59
f 59/76/60 43/49/60 44/77/60
f 67/78/61 51/74/61 52/50/61
f 60/79/62 44/77/62 45/52/62
f 68/80/63 52/50/63 53/53/63
f 61/81/64 45/52/64 46/54/64
f 66/82/65 80/83/65 65/75/65
f 74/84/66 58/73/66 59/76/66
f 82/85/67 66/82/67 67/78/67
f 60/79/68 74/84/68 59/76/68
f 68/80/69 82/85/69 67/78/69
f 76/86/70 60/79/70 61/81/70
f 84/87/71 68/80/71 69/64/71
f 77/88/72 61/81/72 62/65/72
f 85/89/73 69/64/73 70/70/73
f 63/90/74 77/88/74 62/65/74
f 56/67/75 71/91/75 297/92/75
f 206/93/76 85/89/76 70/70/76
f 79/94/77 63/90/77 64/71/77
f 72/95/78 56/67/78 57/72/78
f 80/83/79 64/71/79 65/75/79
f 73/96/80 57/72/80 58/73/80
f 85/89/81 99/97/81 84/87/81
f 93/98/82 77/88/82 78/99/82
f 71/91/83 86/100/83 297/101/83
f 206/102/84 100/103/84 85/89/84
f 94/104/85 78/99/85 79/94/85
f 87/105/86 71/91/86 72/95/86
f 95/106/87 79/94/87 80/83/87
f 88/107/88 72/95/88 73/96/88
f 81/108/89 95/106/89 80/83/89
f 74/84/90 88/107/90 73/96/90
f 82/85/91 96/109/91 81/108/91
f 90/110/92 74/84/92 75/111/92
f 98/112/93 82/85/93 83/113/93
f 91/114/94 75/111/94 76/86/94
f 99/97/95 83/113/95 84/87/95
f 77/88/96 91/114/96 76/86/96
f 89/115/97 103/116/97 88/107/97
f 112/117/98 96/109/98 97/118/98
f 105/119/99 89/115/99 90/110/99
f 113/120/100 97/118/100 98/112/100
f 106/121/101 90/110/101 91/114/101
f 114/122/102 98/112/102 99/97/102
f 92/123/103 106/121/103 91/114/103
f 115/124/104 99/97/104 100/103/104
f 108/125/105 92/123/105 93/98/105
f 86/100/106 101/126/106 297/127/106
f 206/128/107 115/124/107 100/103/107
f 109/129/108 93/98/108 94/104/108
f 102/130/109 86/100/109 87/105/109
f 110/131/110 94/104/110 95/106/110
f 103/116/111 87/105/111 88/107/111
f 96/109/112 110/131/112 95/106/112
f 123/132/113 107/133/113 108/125/113
f 101/126/114 116/134/114 297/135/114
f 206/136/115 130/137/115 115/124/115
f 124/138/116 108/125/116 109/129/116
f 117/139/117 101/126/117 102/130/117
f 125/140/118 109/129/118 110/131/118
f 118/141/119 102/130/119 103/116/119
f 111/142/120 125/140/120 110/131/120
f 119/143/121 103/116/121 104/144/121
f 127/145/122 111/142/122 112/117/122
f 120/146/123 104/144/123 105/119/123
f 113/120/124 127/145/124 112/117/124
f 121/147/125 105/119/125 106/121/125
f 114/122/126 128/148/126 113/120/126
f 107/133/127 121/147/127 106/121/127
f 130/137/128 114/122/128 115/124/128
f 142/149/129 126/150/129 127/145/129
f 120/146/130 134/151/130 119/143/130
f 143/152/131 127/145/131 128/148/131
f 136/153/132 120/146/132 121/147/132
f 144/154/133 128/148/133 129/155/133
f 122/156/134 136/153/134 121/147/134
f 130/137/135 144/154/135 129/155/135
f 138/157/136 122/156/136 123/132/136
f 116/134/137 131/158/137 297/159/137
f 206/160/138 145/161/138 130/137/138
f 139/162/139 123/132/139 124/138/139
f 132/163/140 116/134/140 117/139/140
f 140/164/141 124/138/141 125/140/141
f 133/165/142 117/139/142 118/141/142
f 126/150/143 140/164/143 125/140/143
f 134/151/144 118/141/144 119/143/144
f 131/158/145 146/166/145 297/167/145
f 206/168/146 160/169/146 145/161/146
f 154/170/147 138/157/147 139/162/147
f 147/171/148 131/158/148 132/163/148
f 155/172/149 139/162/149 140/164/149
f 133/165/150 147/171/150 132/163/150
f 141/173/151 155/172/151 140/164/151
f 149/174/152 133/165/152 134/151/152
f 157/175/153 141/173/153 142/149/153
f 135/176/154 149/174/154 134/151/154
f 158/177/155 142/149/155 143/152/155
f 151/178/156 135/176/156 136/153/156
f 159/179/157 143/152/157 144/154/157
f 137/180/158 151/178/158 136/153/158
f 160/169/159 144/154/159 145/161/159
f 153/181/160 137/180/160 138/157/160
f 150/182/161 164/183/161 149/174/161
f 158/177/162 172/184/162 157/175/162
f 166/185/163 150/182/163 151/178/163
f 174/186/164 158/177/164 159/179/164
f 152/187/165 166/185/165 151/178/165
f 160/169/166 174/186/166 159/179/166
f 168/188/167 152/187/167 153/181/167
f 146/166/168 161/189/168 297/190/168
f 206/191/169 175/192/169 160/169/169
f 154/170/170 168/188/170 153/181/170
f 162/193/171 146/166/171 147/171/171
f 170/194/172 154/170/172 155/172/172
f 163/195/173 147/171/173 148/196/173
f 156/197/174 170/194/174 155/172/174
f 164/183/175 148/196/175 149/174/175
f 172/184/176 156/197/176 157/175/176
f 184/198/177 168/188/177 169/199/177
f 177/200/178 161/189/178 162/193/178
f 185/201/179 169/199/179 170/194/179
f 163/195/180 177/200/180 162/193/180
f 171/202/181 185/201/181 170/194/181
f 179/203/182 163/195/182 164/183/182
f 187/204/183 171/202/183 172/184/183
f 180/205/184 164/183/184 165/206/184
f 173/207/185 187/204/185 172/184/185
f 181/208/186 165/206/186 166/185/186
f 189/209/187 173/207/187 174/186/187
f 167/210/188 181/208/188 166/185/188
f 190/211/189 174/186/189 175/192/189
f 183/212/190 167/210/190 168/188/190
f 161/189/191 176/213/191 297/214/191
f 206/215/192 190/211/192 175/192/192
f 188/216/193 202/217/193 187/204/193
f 196/218/194 180/205/194 181/208/194
f 189/209/195 203/219/195 188/216/195
f 182/220/196 196/218/196 181/208/196
f 190/211/197 204/221/197 189/209/197
f 198/222/198 182/220/198 183/212/198
f 176/213/199 191/223/199 297/224/199
f 206/225/200 205/226/200 190/211/200
f 184/198/201 198/222/201 183/212/201
f 192/227/202 176/213/202 177/200/202
f 200/228/203 184/198/203 185/201/203
f 193/229/204 177/200/204 178/230/204
f 186/231/205 200/228/205 185/201/205
f 194/232/206 178/230/206 179/203/206
f 202/217/207 186/231/207 187/204/207
f 180/205/208 194/232/208 179/203/208
f 216/233/209 199/234/209 200/228/209
f 209/235/210 192/227/210 193/229/210
f 201/236/211 216/233/211 200/228/211
f 210/237/212 193/229/212 194/232/212
f 218/238/213 201/236/213 202/217/213
f 211/239/214 194/232/214 195/240/214
f 219/241/215 202/217/215 203/219/215
f 212/242/216 195/240/216 196/218/216
f 204/221/217 219/241/217 203/219/217
f 197/243/218 212/242/218 196/218/218
f 221/244/219 204/221/219 205/226/219
f 214/245/220 197/243/220 198/222/220
f 191/223/221 207/246/221 297/247/221
f 206/248/222 221/244/222 205/226/222
f 215/249/223 198/222/223 199/234/223
f 208/250/224 191/223/224 192/227/224
f 235/251/225 219/241/225 220/252/225
f 213/253/226 227/254/226 212/242/226
f 236/255/227 220/252/227 221/244/227
f 229/256/228 213/253/228 214/245/228
f 207/246/229 222/257/229 297/258/229
f 206/259/230 236/255/230 221/244/230
f 230/260/231 214/245/231 215/249/231
f 223/261/232 207/246/232 208/250/232
f 231/262/233 215/249/233 216/233/233
f 224/263/234 208/250/234 209/235/234
f 217/264/235 231/262/235 216/233/235
f 210/237/236 224/263/236 209/235/236
f 233/265/237 217/264/237 218/238/237
f 226/266/238 210/237/238 211/239/238
f 234/267/239 218/238/239 219/241/239
f 227/254/240 211/239/240 212/242/240
f 239/268/241 223/261/241 224/263/241
f 232/269/242 246/270/242 231/262/242
f 225/271/243 239/268/243 224/263/243
f 248/272/244 232/269/244 233/265/244
f 226/266/245 240/273/245 225/271/245
f 234/267/246 248/272/246 233/265/246
f 242/274/247 226/266/247 227/254/247
f 235/251/248 249/275/248 234/267/248
f 228/276/249 242/274/249 227/254/249
f 236/255/250 250/277/250 235/251/250
f 244/278/251 228/276/251 229/256/251
f 222/257/252 237/279/252 297/280/252
f 206/281/253 251/282/253 236/255/253
f 245/283/254 229/256/254 230/260/254
f 238/284/255 222/257/255 223/261/255
f 246/270/256 230/260/256 231/262/256
f 243/285/257 257/286/257 242/274/257
f 251/282/258 265/287/258 250/277/258
f 259/288/259 243/285/259 244/278/259
f 237/279/260 252/289/260 297/290/260
f 206/291/261 266/292/261 251/282/261
f 260/293/262 244/278/262 245/283/262
f 253/294/263 237/279/263 238/284/263
f 261/295/264 245/283/264 246/270/264
f 254/296/265 238/284/265 239/268/265
f 247/297/266 261/295/266 246/270/266
f 240/273/267 254/296/267 239/268/267
f 263/298/268 247/297/268 248/272/268
f 241/299/269 255/300/269 240/273/269
f 264/301/270 248/272/270 249/275/270
f 257/286/271 241/299/271 242/274/271
f 265/287/272 249/275/272 250/277/272
f 262/302/273 276/303/273 261/295/273
f 255/300/274 269/304/274 254/296/274
f 278/305/275 262/302/275 263/298/275
f 271/306/276 255/300/276 256/307/276
f 279/308/277 263/298/277 264/301/277
f 272/309/278 256/307/278 257/286/278
f 280/310/279 264/301/279 265/287/279
f 258/311/280 272/309/280 257/286/280
f 281/312/281 265/287/281 266/292/281
f 259/288/282 273/313/282 258/311/282
f 252/289/283 267/314/283 297/315/283
f 206/316/284 281/312/284 266/292/284
f 275/317/285 259/288/285 260/293/285
f 268/318/286 252/289/286 253/294/286
f 276/303/287 260/293/287 261/295/287
f 269/304/288 253/294/288 254/296/288
f 281/312/289 295/319/289 280/310/289
f 289/320/290 273/313/290 274/321/290
f 267/314/291 282/322/291 297/323/291
f 206/324/292 296/325/292 281/312/292
f 290/326/293 274/321/293 275/317/293
f 283/327/294 267/314/294 268/318/294
f 291/328/295 275/317/295 276/303/295
f 284/329/296 268/318/296 269/304/296
f 277/330/297 291/328/297 276/303/297
f 285/331/298 269/304/298 270/332/298
f 293/333/299 277/330/299 278/305/299
f 271/306/300 285/331/300 270/332/300
f 279/308/301 293/333/301 278/305/301
f 287/334/302 271/306/302 272/309/302
f 295/319/303 279/308/303 280/310/303
f 273/313/304 287/334/304 272/309/304
f 285/331/305 300/335/305 284/329/305
f 309/336/306 292/337/306 293/333/306
f 286/338/307 301/339/307 285/331/307
f 310/340/308 293/333/308 294/341/308
f 303/342/309 286/338/309 287/334/309
f 295/319/310 310/340/310 294/341/310
f 288/343/311 303/342/311 287/334/311
f 312/344/312 295/319/312 296/325/312
f 289/320/313 304/345/313 288/343/313
f 282/322/314 298/346/314 297/347/314
f 206/348/315 312/344/315 296/325/315
f 306/349/316 289/320/316 290/326/316
f 299/350/317 282/322/317 283/327/317
f 307/351/318 290/326/318 291/328/318
f 300/335/319 283/327/319 284/329/319
f 292/337/320 307/351/320 291/328/320
f 320/352/321 304/345/321 305/353/321
f 298/346/322 313/354/322 297/355/322
f 206/356/323 327/357/323 312/344/323
f 321/358/324 305/353/324 306/349/324
f 299/350/325 313/354/325 298/346/325
f 322/359/326 306/349/326 307/351/326
f 315/360/327 299/350/327 300/335/327
f 308/361/328 322/359/328 307/351/328
f 301/339/329 315/360/329 300/335/329
f 324/362/330 308/361/330 309/336/330
f 302/363/331 316/364/331 301/339/331
f 325/365/332 309/336/332 310/340/332
f 318/366/333 302/363/333 303/342/333
f 311/367/334 325/365/334 310/340/334
f 304/345/335 318/366/335 303/342/335
f 327/357/336 311/367/336 312/344/336
f 339/368/337 323/369/337 324/362/337
f 317/370/338 331/371/338 316/364/338
f 340/372/339 324/362/339 325/365/339
f 333/373/340 317/370/340 318/366/340
f 326/374/341 340/372/341 325/365/341
f 319/375/342 333/373/342 318/366/342
f 342/376/343 326/374/343 327/357/343
f 335/377/344 319/375/344 320/352/344
f 313/354/345 328/378/345 297/379/345
f 206/380/346 342/376/346 327/357/346
f 336/381/347 320/352/347 321/358/347
f 329/382/348 313/354/348 314/383/348
f 337/384/349 321/358/349 322/359/349
f 330/385/350 314/383/350 315/360/350
f 323/369/351 337/384/351 322/359/351
f 331/371/352 315/360/352 316/364/352
f 206/386/353 357/387/353 342/376/353
f 336/381/354 350/388/354 335/377/354
f 329/382/355 343/389/355 328/378/355
f 352/390/356 336/381/356 337/384/356
f 345/391/357 329/382/357 330/385/357
f 338/392/358 352/390/358 337/384/358
f 331/371/359 345/391/359 330/385/359
f 354/393/360 338/392/360 339/368/360
f 332/394/361 346/395/361 331/371/361
f 355/396/362 339/368/362 340/372/362
f 348/397/363 332/394/363 333/373/363
f 356/398/364 340/372/364 341/399/364
f 334/400/365 348/397/365 333/373/365
f 357/387/366 341/399/366 342/376/366
f 350/388/367 334/400/367 335/377/367
f 328/378/368 343/389/368 297/401/368
f 370/402/369 354/393/369 355/396/369
f 363/403/370 347/404/370 348/397/370
f 356/398/371 370/402/371 355/396/371
f 349/405/372 363/403/372 348/397/372
f 372/406/373 356/398/373 357/387/373
f 365/407/374 349/405/374 350/388/374
f 343/389/375 358/408/375 297/409/375
f 206/410/376 372/406/376 357/387/376
f 351/411/377 365/407/377 350/388/377
f 344/412/378 358/408/378 343/389/378
f 367/413/379 351/411/379 352/390/379
f 360/414/380 344/412/380 345/391/380
f 353/415/381 367/413/381 352/390/381
f 361/416/382 345/391/382 346/395/382
f 354/393/383 368/417/383 353/415/383
f 362/418/384 346/395/384 347/404/384
f 359/419/385 373/420/385 358/421/385
f 382/422/386 366/423/386 367/424/386
f 375/425/387 359/419/387 360/426/387
f 368/427/388 382/422/388 367/424/388
f 376/428/389 360/426/389 361/429/389
f 369/430/390 383/431/390 368/427/390
f 377/432/391 361/429/391 362/433/391
f 385/434/392 369/430/392 370/435/392
f 378/436/393 362/433/393 363/437/393
f 386/438/394 370/435/394 371/439/394
f 364/440/395 378/436/395 363/437/395
f 387/441/396 371/439/396 372/442/396
f 380/443/397 364/440/397 365/444/397
f 358/421/398 373/420/398 297/445/398
f 206/446/399 387/441/399 372/442/399
f 366/423/400 380/443/400 365/444/400
f 393/447/401 377/432/401 378/436/401
f 401/448/402 385/434/402 386/438/402
f 379/449/403 393/447/403 378/436/403
f 402/450/404 386/438/404 387/441/404
f 395/451/405 379/449/405 380/443/405
f 373/420/406 388/452/406 297/453/406
f 206/454/407 402/450/407 387/441/407
f 396/455/408 380/443/408 381/456/408
f 389/457/409 373/420/409 374/458/409
f 397/459/410 381/456/410 382/422/410
f 390/460/411 374/458/411 375/425/411
f 383/431/412 397/459/412 382/422/412
f 391/461/413 375/425/413 376/428/413
f 399/462/414 383/431/414 384/463/414
f 392/464/415 376/428/415 377/432/415
f 400/465/416 384/463/416 385/434/416
f 412/466/417 396/455/417 397/459/417
f 405/467/418 389/457/418 390/460/418
f 398/468/419 412/466/419 397/459/419
f 391/461/420 405/467/420 390/460/420
f 414/469/421 398/468/421 399/462/421
f 392/464/422 406/470/422 391/461/422
f 400/465/423 414/469/423 399/462/423
f 408/471/424 392/464/424 393/447/424
f 416/472/425 400/465/425 401/448/425
f 394/473/426 408/471/426 393/447/426
f 417/474/427 401/448/427 402/450/427
f 410/475/428 394/473/428 395/451/428
f 388/452/429 403/476/429 297/477/429
f 206/478/430 417/474/430 402/450/430
f 396/455/431 410/475/431 395/451/431
f 404/479/432 388/452/432 389/457/432
f 431/480/433 415/481/433 416/472/433
f 409/482/434 423/483/434 408/471/434
f 432/484/435 416/472/435 417/474/435
f 425/485/436 409/482/436 410/475/436
f 403/476/437 418/486/437 297/487/437
f 206/488/438 432/484/438 417/474/438
f 411/489/439 425/485/439 410/475/439
f 419/490/440 403/476/440 404/479/440
f 427/491/441 411/489/441 412/466/441
f 420/492/442 404/479/442 405/467/442
f 413/493/443 427/491/443 412/466/443
f 406/470/444 420/492/444 405/467/444
f 429/494/445 413/493/445 414/469/445
f 407/495/446 421/496/446 406/470/446
f 430/497/447 414/469/447 415/481/447
f 423/483/448 407/495/448 408/471/448
f 435/498/449 419/490/449 420/492/449
f 428/499/450 442/500/450 427/491/450
f 436/501/451 420/492/451 421/496/451
f 444/502/452 428/499/452 429/494/452
f 422/503/453 436/501/453 421/496/453
f 430/497/454 444/502/454 429/494/454
f 438/504/455 422/503/455 423/483/455
f 446/505/456 430/497/456 431/480/456
f 424/506/457 438/504/457 423/483/457
f 447/507/458 431/480/458 432/484/458
f 440/508/459 424/506/459 425/485/459
f 418/486/460 433/509/460 297/510/460
f 206/511/461 447/507/461 432/484/461
f 441/512/462 425/485/462 426/513/462
f 434/514/463 418/486/463 419/490/463
f 442/500/464 426/513/464 427/491/464
f 439/515/465 453/516/465 438/504/465
f 462/517/466 446/505/466 447/507/466
f 455/518/467 439/515/467 440/508/467
f 433/509/468 448/519/468 297/520/468
f 206/521/469 462/517/469 447/507/469
f 456/522/470 440/508/470 441/512/470
f 434/514/471 448/519/471 433/509/471
f 457/523/472 441/512/472 442/500/472
f 450/524/473 434/514/473 435/498/473
f 443/525/474 457/523/474 442/500/474
f 451/526/475 435/498/475 436/501/475
f 459/527/476 443/525/476 444/502/476
f 437/528/477 451/526/477 436/501/477
f 460/529/478 444/502/478 445/530/478
f 453/516/479 437/528/479 438/504/479
f 446/505/480 460/529/480 445/530/480
f 458/531/481 472/532/481 457/523/481
f 466/533/482 450/524/482 451/526/482
f 474/534/483 458/531/483 459/527/483
f 452/535/484 466/533/484 451/526/484
f 475/536/485 459/527/485 460/529/485
f 468/537/486 452/535/486 453/516/486
f 476/538/487 460/529/487 461/539/487
f 454/540/488 468/537/488 453/516/488
f 477/541/489 461/539/489 462/517/489
f 470/542/490 454/540/490 455/518/490
f 448/519/491 463/543/491 297/544/491
f 206/545/492 477/541/492 462/517/492
f 471/546/493 455/518/493 456/522/493
f 464/547/494 448/519/494 449/548/494
f 472/532/495 456/522/495 457/523/495
f 465/549/496 449/548/496 450/524/496
f 482/3/497 476/538/497 477/541/497
f 470/542/498 7/5/498 469/550/498
f 463/543/499 1/7/499 297/551/499
f 206/552/500 482/3/500 477/541/500
f 9/12/501 470/542/501 471/546/501
f 464/547/502 1/7/502 463/543/502
f 478/15/503 471/546/503 472/532/503
f 465/549/504 2/13/504 464/547/504
f 473/553/505 478/15/505 472/532/505
f 466/533/506 3/16/506 465/549/506
f 480/23/507 473/553/507 474/534/507
f 467/554/508 4/21/508 466/533/508
f 10/27/509 474/534/509 475/536/509
f 468/537/510 5/25/510 467/554/510
f 481/2/511 475/536/511 476/538/511
f 469/550/512 6/28/512 468/537/512
f 25/1/1 24/29/1 481/2/1
f 18/4/513 17/30/513 7/5/513
f 19/11/514 18/4/514 8/6/514
f 2/13/6 12/17/6 11/8/6
f 20/14/7 19/11/7 9/12/7
f 3/16/8 13/42/8 12/17/8
f 21/18/9 20/14/9 478/15/9
f 14/20/10 13/42/10 3/16/10
f 22/22/11 21/18/11 479/19/11
f 15/24/12 14/20/12 4/21/12
f 23/26/13 22/22/13 480/23/13
f 6/28/14 16/32/14 15/24/14
f 24/29/15 23/26/15 10/27/15
f 17/30/16 16/32/16 6/28/16
f 31/31/17 30/45/17 15/24/17
f 39/33/18 38/46/18 23/26/18
f 17/30/19 32/56/19 31/31/19
f 40/34/20 39/33/20 24/29/20
f 33/35/21 32/56/21 17/30/21
f 34/39/24 33/35/24 18/4/24
f 27/40/25 26/36/25 11/8/25
f 20/14/26 35/48/26 34/39/26
f 28/41/27 27/40/27 12/17/27
f 36/43/28 35/48/28 20/14/28
f 29/44/29 28/41/29 13/42/29
f 22/22/30 37/51/30 36/43/30
f 30/45/31 29/44/31 14/20/31
f 38/46/32 37/51/32 22/22/32
f 50/47/33 49/62/33 34/39/33
f 43/49/515 42/63/515 27/40/515
f 36/43/35 51/74/35 50/47/35
f 29/44/36 44/77/36 43/49/36
f 52/50/37 51/74/37 36/43/37
f 45/52/38 44/77/38 29/44/38
f 53/53/39 52/50/39 37/51/39
f 46/54/40 45/52/40 30/45/40
f 54/55/41 53/53/41 38/46/41
f 32/56/42 47/66/42 46/54/42
f 55/57/43 54/55/43 39/33/43
f 48/58/44 47/66/44 32/56/44
f 49/62/47 48/58/47 33/35/47
f 42/63/48 41/59/48 26/36/48
f 69/64/49 68/80/49 53/53/49
f 62/65/50 61/81/50 46/54/50
f 55/57/51 70/70/51 69/64/51
f 48/58/516 63/90/516 62/65/516
f 64/71/517 63/90/517 48/58/517
f 57/72/56 56/67/56 41/59/56
f 50/47/57 65/75/57 64/71/57
f 58/73/58 57/72/58 42/63/58
f 51/74/59 66/82/59 65/75/59
f 59/76/60 58/73/60 43/49/60
f 67/78/61 66/82/61 51/74/61
f 60/79/62 59/76/62 44/77/62
f 68/80/63 67/78/63 52/50/63
f 61/81/64 60/79/64 45/52/64
f 66/82/65 81/108/65 80/83/65
f 74/84/66 73/96/66 58/73/66
f 82/85/67 81/108/67 66/82/67
f 60/79/68 75/111/68 74/84/68
f 68/80/69 83/113/69 82/85/69
f 76/86/70 75/111/70 60/79/70
f 84/87/71 83/113/71 68/80/71
f 77/88/72 76/86/72 61/81/72
f 85/89/73 84/87/73 69/64/73
f 63/90/74 78/99/74 77/88/74
f 79/94/77 78/99/77 63/90/77
f 72/95/78 71/91/78 56/67/78
f 80/83/79 79/94/79 64/71/79
f 73/96/80 72/95/80 57/72/80
f 85/89/81 100/103/81 99/97/81
f 93/98/518 92/123/518 77/88/518
f 94/104/519 93/98/519 78/99/519
f 87/105/86 86/100/86 71/91/86
f 95/106/87 94/104/87 79/94/87
f 88/107/88 87/105/88 72/95/88
f 81/108/89 96/109/89 95/106/89
f 74/84/90 89/115/90 88/107/90
f 82/85/91 97/118/91 96/109/91
f 90/110/92 89/115/92 74/84/92
f 98/112/93 97/118/93 82/85/93
f 91/114/94 90/110/94 75/111/94
f 99/97/520 98/112/520 83/113/520
f 77/88/96 92/123/96 91/114/96
f 89/115/97 104/144/97 103/116/97
f 112/117/98 111/142/98 96/109/98
f 105/119/99 104/144/99 89/115/99
f 113/120/100 112/117/100 97/118/100
f 106/121/101 105/119/101 90/110/101
f 114/122/102 113/120/102 98/112/102
f 92/123/103 107/133/103 106/121/103
f 115/124/104 114/122/104 99/97/104
f 108/125/105 107/133/105 92/123/105
f 109/129/108 108/125/108 93/98/108
f 102/130/109 101/126/109 86/100/109
f 110/131/110 109/129/110 94/104/110
f 103/116/111 102/130/111 87/105/111
f 96/109/112 111/142/112 110/131/112
f 123/132/521 122/156/521 107/133/521
f 124/138/116 123/132/116 108/125/116
f 117/139/117 116/134/117 101/126/117
f 125/140/118 124/138/118 109/129/118
f 118/141/119 117/139/119 102/130/119
f 111/142/120 126/150/120 125/140/120
f 119/143/121 118/141/121 103/116/121
f 127/145/122 126/150/122 111/142/122
f 120/146/123 119/143/123 104/144/123
f 113/120/124 128/148/124 127/145/124
f 121/147/125 120/146/125 105/119/125
f 114/122/126 129/155/126 128/148/126
f 107/133/127 122/156/127 121/147/127
f 130/137/128 129/155/128 114/122/128
f 142/149/129 141/173/129 126/150/129
f 120/146/130 135/176/130 134/151/130
f 143/152/131 142/149/131 127/145/131
f 136/153/132 135/176/132 120/146/132
f 144/154/133 143/152/133 128/148/133
f 122/156/134 137/180/134 136/153/134
f 130/137/135 145/161/135 144/154/135
f 138/157/522 137/180/522 122/156/522
f 139/162/139 138/157/139 123/132/139
f 132/163/140 131/158/140 116/134/140
f 140/164/141 139/162/141 124/138/141
f 133/165/142 132/163/142 117/139/142
f 126/150/143 141/173/143 140/164/143
f 134/151/144 133/165/144 118/141/144
f 154/170/147 153/181/147 138/157/147
f 147/171/148 146/166/148 131/158/148
f 155/172/149 154/170/149 139/162/149
f 133/165/150 148/196/150 147/171/150
f 141/173/151 156/197/151 155/172/151
f 149/174/152 148/196/152 133/165/152
f 157/175/153 156/197/153 141/173/153
f 135/176/154 150/182/154 149/174/154
f 158/177/155 157/175/155 142/149/155
f 151/178/156 150/182/156 135/176/156
f 159/179/157 158/177/157 143/152/157
f 137/180/158 152/187/158 151/178/158
f 160/169/159 159/179/159 144/154/159
f 153/181/160 152/187/160 137/180/160
f 150/182/161 165/206/161 164/183/161
f 158/177/162 173/207/162 172/184/162
f 166/185/163 165/206/163 150/182/163
f 174/186/523 173/207/523 158/177/523
f 152/187/165 167/210/165 166/185/165
f 160/169/166 175/192/166 174/186/166
f 168/188/167 167/210/167 152/187/167
f 154/170/170 169/199/170 168/188/170
f 162/193/171 161/189/171 146/166/171
f 170/194/172 169/199/172 154/170/172
f 163/195/173 162/193/173 147/171/173
f 156/197/174 171/202/174 170/194/174
f 164/183/175 163/195/175 148/196/175
f 172/184/176 171/202/176 156/197/176
f 184/198/177 183/212/177 168/188/177
f 177/200/178 176/213/178 161/189/178
f 185/201/179 184/198/179 169/199/179
f 163/195/180 178/230/180 177/200/180
f 171/202/181 186/231/181 185/201/181
f 179/203/182 178/230/182 163/195/182
f 187/204/183 186/231/183 171/202/183
f 180/205/184 179/203/184 164/183/184
f 173/207/185 188/216/185 187/204/185
f 181/208/186 180/205/186 165/206/186
f 189/209/187 188/216/187 173/207/187
f 167/210/188 182/220/188 181/208/188
f 190/211/189 189/209/189 174/186/189
f 183/212/190 182/220/190 167/210/190
f 188/216/193 203/219/193 202/217/193
f 196/218/194 195/240/194 180/205/194
f 189/209/195 204/221/195 203/219/195
f 182/220/196 197/243/196 196/218/196
f 190/211/197 205/226/197 204/221/197
f 198/222/198 197/243/198 182/220/198
f 184/198/201 199/234/201 198/222/201
f 192/227/202 191/223/202 176/213/202
f 200/228/203 199/234/203 184/198/203
f 193/229/204 192/227/204 177/200/204
f 186/231/205 201/236/205 200/228/205
f 194/232/206 193/229/206 178/230/206
f 202/217/207 201/236/207 186/231/207
f 180/205/208 195/240/208 194/232/208
f 216/233/209 215/249/209 199/234/209
f 209/235/524 208/250/524 192/227/524
f 201/236/211 217/264/211 216/233/211
f 210/237/212 209/235/212 193/229/212
f 218/238/213 217/264/213 201/236/213
f 211/239/214 210/237/214 194/232/214
f 219/241/215 218/238/215 202/217/215
f 212/242/216 211/239/216 195/240/216
f 204/221/217 220/252/217 219/241/217
f 197/243/218 213/253/218 212/242/218
f 221/244/525 220/252/525 204/221/525
f 214/245/220 213/253/220 197/243/220
f 215/249/223 214/245/223 198/222/223
f 208/250/224 207/246/224 191/223/224
f 235/251/225 234/267/225 219/241/225
f 213/253/226 228/276/226 227/254/226
f 236/255/227 235/251/227 220/252/227
f 229/256/228 228/276/228 213/253/228
f 230/260/231 229/256/231 214/245/231
f 223/261/232 222/257/232 207/246/232
f 231/262/233 230/260/233 215/249/233
f 224/263/234 223/261/234 208/250/234
f 217/264/235 232/269/235 231/262/235
f 210/237/236 225/271/236 224/263/236
f 233/265/237 232/269/237 217/264/237
f 226/266/238 225/271/238 210/237/238
f 234/267/239 233/265/239 218/238/239
f 227/254/240 226/266/240 211/239/240
f 239/268/241 238/284/241 223/261/241
f 232/269/242 247/297/242 246/270/242
f 225/271/243 240/273/243 239/268/243
f 248/272/244 247/297/244 232/269/244
f 226/266/245 241/299/245 240/273/245
f 234/267/246 249/275/246 248/272/246
f 242/274/247 241/299/247 226/266/247
f 235/251/248 250/277/248 249/275/248
f 228/276/249 243/285/249 242/274/249
f 236/255/250 251/282/250 250/277/250
f 244/278/251 243/285/251 228/276/251
f 245/283/254 244/278/254 229/256/254
f 238/284/255 237/279/255 222/257/255
f 246/270/256 245/283/256 230/260/256
f 243/285/257 258/311/257 257/286/257
f 251/282/258 266/292/258 265/287/258
f 259/288/526 258/311/526 243/285/526
f 260/293/262 259/288/262 244/278/262
f 253/294/263 252/289/263 237/279/263
f 261/295/264 260/293/264 245/283/264
f 254/296/265 253/294/265 238/284/265
f 247/297/266 262/302/266 261/295/266
f 240/273/267 255/300/267 254/296/267
f 263/298/268 262/302/268 247/297/268
f 241/299/269 256/307/269 255/300/269
f 264/301/270 263/298/270 248/272/270
f 257/286/271 256/307/271 241/299/271
f 265/287/272 264/301/272 249/275/272
f 262/302/273 277/330/273 276/303/273
f 255/300/274 270/332/274 269/304/274
f 278/305/275 277/330/275 262/302/275
f 271/306/276 270/332/276 255/300/276
f 279/308/277 278/305/277 263/298/277
f 272/309/278 271/306/278 256/307/278
f 280/310/279 279/308/279 264/301/279
f 258/311/280 273/313/280 272/309/280
f 281/312/281 280/310/281 265/287/281
f 259/288/282 274/321/282 273/313/282
f 275/317/285 274/321/285 259/288/285
f 268/318/286 267/314/286 252/289/286
f 276/303/287 275/317/287 260/293/287
f 269/304/288 268/318/288 253/294/288
f 281/312/527 296/325/527 295/319/527
f 289/320/290 288/343/290 273/313/290
f 290/326/293 289/320/293 274/321/293
f 283/327/294 282/322/294 267/314/294
f 291/328/295 290/326/295 275/317/295
f 284/329/296 283/327/296 268/318/296
f 277/330/297 292/337/297 291/328/297
f 285/331/298 284/329/298 269/304/298
f 293/333/299 292/337/299 277/330/299
f 271/306/300 286/338/300 285/331/300
f 279/308/301 294/341/301 293/333/301
f 287/334/302 286/338/302 271/306/302
f 295/319/528 294/341/528 279/308/528
f 273/313/304 288/343/304 287/334/304
f 285/331/305 301/339/305 300/335/305
f 309/336/306 308/361/306 292/337/306
f 286/338/307 302/363/307 301/339/307
f 310/340/308 309/336/308 293/333/308
f 303/342/309 302/363/309 286/338/309
f 295/319/310 311/367/310 310/340/310
f 288/343/311 304/345/311 303/342/311
f 312/344/312 311/367/312 295/319/312
f 289/320/313 305/353/313 304/345/313
f 306/349/316 305/353/316 289/320/316
f 299/350/317 298/346/317 282/322/317
f 307/351/318 306/349/318 290/326/318
f 300/335/319 299/350/319 283/327/319
f 292/337/320 308/361/320 307/351/320
f 320/352/321 319/375/321 304/345/321
f 321/358/324 320/352/324 305/353/324
f 299/350/325 314/383/325 313/354/325
f 322/359/326 321/358/326 306/349/326
f 315/360/327 314/383/327 299/350/327
f 308/361/328 323/369/328 322/359/328
f 301/339/329 316/364/329 315/360/329
f 324/362/330 323/369/330 308/361/330
f 302/363/331 317/370/331 316/364/331
f 325/365/332 324/362/332 309/336/332
f 318/366/333 317/370/333 302/363/333
f 311/367/334 326/374/334 325/365/334
f 304/345/335 319/375/335 318/366/335
f 327/357/336 326/374/336 311/367/336
f 339/368/337 338/392/337 323/369/337
f 317/370/338 332/394/338 331/371/338
f 340/372/339 339/368/339 324/362/339
f 333/373/340 332/394/340 317/370/340
f 326/374/529 341/399/529 340/372/529
f 319/375/342 334/400/342 333/373/342
f 342/376/343 341/399/343 326/374/343
f 335/377/344 334/400/344 319/375/344
f 336/381/347 335/377/347 320/352/347
f 329/382/348 328/378/348 313/354/348
f 337/384/349 336/381/349 321/358/349
f 330/385/530 329/382/530 314/383/530
f 323/369/351 338/392/351 337/384/351
f 331/371/352 330/385/352 315/360/352
f 336/381/354 351/411/354 350/388/354
f 329/382/355 344/412/355 343/389/355
f 352/390/356 351/411/356 336/381/356
f 345/391/357 344/412/357 329/382/357
f 338/392/358 353/415/358 352/390/358
f 331/371/359 346/395/359 345/391/359
f 354/393/360 353/415/360 338/392/360
f 332/394/361 347/404/361 346/395/361
f 355/396/362 354/393/362 339/368/362
f 348/397/363 347/404/363 332/394/363
f 356/398/364 355/396/364 340/372/364
f 334/400/365 349/405/365 348/397/365
f 357/387/366 356/398/366 341/399/366
f 350/388/367 349/405/367 334/400/367
f 370/402/369 369/555/369 354/393/369
f 363/403/370 362/418/370 347/404/370
f 356/398/371 371/556/371 370/402/371
f 349/405/372 364/557/372 363/403/372
f 372/406/373 371/556/373 356/398/373
f 365/407/374 364/557/374 349/405/374
f 351/411/377 366/558/377 365/407/377
f 344/412/378 359/559/378 358/408/378
f 367/413/379 366/558/379 351/411/379
f 360/414/380 359/559/380 344/412/380
f 353/415/381 368/417/381 367/413/381
f 361/416/382 360/414/382 345/391/382
f 354/393/383 369/555/383 368/417/383
f 362/418/384 361/416/384 346/395/384
f 359/419/385 374/458/385 373/420/385
f 382/422/386 381/456/386 366/423/386
f 375/425/387 374/458/387 359/419/387
f 368/427/388 383/431/388 382/422/388
f 376/428/389 375/425/389 360/426/389
f 369/430/390 384/463/390 383/431/390
f 377/432/391 376/428/391 361/429/391
f 385/434/392 384/463/392 369/430/392
f 378/436/393 377/432/393 362/433/393
f 386/438/394 385/434/394 370/435/394
f 364/440/395 379/449/395 378/436/395
f 387/441/396 386/438/396 371/439/396
f 380/443/531 379/449/531 364/440/531
f 366/423/532 381/456/532 380/443/532
f 393/447/401 392/464/401 377/432/401
f 401/448/402 400/465/402 385/434/402
f 379/449/403 394/473/403 393/447/403
f 402/450/404 401/448/404 386/438/404
f 395/451/405 394/473/405 379/449/405
f 396/455/408 395/451/408 380/443/408
f 389/457/409 388/452/409 373/420/409
f 397/459/410 396/455/410 381/456/410
f 390/460/411 389/457/411 374/458/411
f 383/431/412 398/468/412 397/459/412
f 391/461/413 390/460/413 375/425/413
f 399/462/414 398/468/414 383/431/414
f 392/464/415 391/461/415 376/428/415
f 400/465/416 399/462/416 384/463/416
f 412/466/417 411/489/417 396/455/417
f 405/467/418 404/479/418 389/457/418
f 398/468/419 413/493/419 412/466/419
f 391/461/420 406/470/420 405/467/420
f 414/469/421 413/493/421 398/468/421
f 392/464/422 407/495/422 406/470/422
f 400/465/423 415/481/423 414/469/423
f 408/471/424 407/495/424 392/464/424
f 416/472/425 415/481/425 400/465/425
f 394/473/426 409/482/426 408/471/426
f 417/474/427 416/472/427 401/448/427
f 410/475/428 409/482/428 394/473/428
f 396/455/431 411/489/431 410/475/431
f 404/479/432 403/476/432 388/452/432
f 431/480/433 430/497/433 415/481/433
f 409/482/434 424/506/434 423/483/434
f 432/484/533 431/480/533 416/472/533
f 425/485/436 424/506/436 409/482/436
f 411/489/439 426/513/439 425/485/439
f 419/490/440 418/486/440 403/476/440
f 427/491/441 426/513/441 411/489/441
f 420/492/442 419/490/442 404/479/442
f 413/493/443 428/499/443 427/491/443
f 406/470/444 421/496/444 420/492/444
f 429/494/445 428/499/445 413/493/445
f 407/495/446 422/503/446 421/496/446
f 430/497/447 429/494/447 414/469/447
f 423/483/448 422/503/448 407/495/448
f 435/498/449 434/514/449 419/490/449
f 428/499/450 443/525/450 442/500/450
f 436/501/451 435/498/451 420/492/451
f 444/502/452 443/525/452 428/499/452
f 422/503/453 437/528/453 436/501/453
f 430/497/454 445/530/454 444/502/454
f 438/504/455 437/528/455 422/503/455
f 446/505/456 445/530/456 430/497/456
f 424/506/457 439/515/457 438/504/457
f 447/507/458 446/505/458 431/480/458
f 440/508/459 439/515/459 424/506/459
f 441/512/462 440/508/462 425/485/462
f 434/514/463 433/509/463 418/486/463
f 442/500/464 441/512/464 426/513/464
f 439/515/465 454/540/465 453/516/465
f 462/517/466 461/539/466 446/505/466
f 455/518/467 454/540/467 439/515/467
f 456/522/470 455/518/470 440/508/470
f 434/514/471 449/548/471 448/519/471
f 457/523/472 456/522/472 441/512/472
f 450/524/473 449/548/473 434/514/473
f 443/525/474 458/531/474 457/523/474
f 451/526/475 450/524/475 435/498/475
f 459/527/476 458/531/476 443/525/476
f 437/528/477 452/535/477 451/526/477
f 460/529/478 459/527/478 444/502/478
f 453/516/479 452/535/479 437/528/479
f 446/505/534 461/539/534 460/529/534
f 458/531/481 473/553/481 472/532/481
f 466/533/482 465/549/482 450/524/482
f 474/534/483 473/553/483 458/531/483
f 452/535/484 467/554/484 466/533/484
f 475/536/485 474/534/485 459/527/485
f 468/537/486 467/554/486 452/535/486
f 476/538/487 475/536/487 460/529/487
f 454/540/488 469/550/488 468/537/488
f 477/541/489 476/538/489 461/539/489
f 470/542/490 469/550/490 454/540/490
f 471/546/493 470/542/493 455/518/493
f 464/547/494 463/543/494 448/519/494
f 472/532/495 471/546/495 456/522/495
f 465/549/496 464/547/496 449/548/496
f 482/3/497 481/2/497 476/538/497
f 470/542/535 8/6/535 7/5/535
f 9/12/536 8/6/536 470/542/536
f 464/547/502 2/13/502 1/7/502
f 478/15/503 9/12/503 471/546/503
f 465/549/504 3/16/504 2/13/504
f 473/553/505 479/19/505 478/15/505
f 466/533/506 4/21/506 3/16/506
f 480/23/507 479/19/507 473/553/507
f 467/554/508 5/25/508 4/21/508
f 10/27/509 480/23/509 474/534/509
f 468/537/510 6/28/510 5/25/510
f 481/2/511 10/27/511 475/536/511
f 469/550/512 7/5/512 6/28/512
